<svg xmlns="http://www.w3.org/2000/svg" xmlns:xlink="http://www.w3.org/1999/xlink" enable-background="new 0 0 1000 1000" viewBox="0 0 1000 1000" id="mobile-book"><path fill="#c2d8f2" d="M326.64,783.7c0,0-137.79-176.9-134.86-264.47s323.66-319.6,406.69-307.09     c83.03,12.51,106.91,209.27,39.81,352.58s96.68,39.81,111.46-46.63c14.79-86.44,168.33,105.85-34.12,265.61H326.64z"></path><path fill="#9bd" d="M754.62,545.75c-0.5,0-0.99,0-1.49-0.01c-28.54-0.39-55.21-11.86-75.12-32.32      c-19.9-20.45-30.65-47.43-30.27-75.97c0.39-28.54,11.86-55.21,32.32-75.12c20.45-19.91,47.43-30.66,75.97-30.27      c28.54,0.39,55.21,11.86,75.12,32.32c19.9,20.45,30.65,47.43,30.27,75.97c-0.39,28.54-11.86,55.21-32.32,75.12l0,0      C809,535.03,782.6,545.75,754.62,545.75z M754.56,336.09c-25.87,0-51.76,9.67-71.73,29.1c-19.69,19.16-30.74,44.85-31.11,72.32      c-0.37,27.47,9.98,53.45,29.14,73.14c39.56,40.64,104.81,41.53,145.45,1.97c40.64-39.56,41.53-104.81,1.97-145.45      C808.16,346.48,781.37,336.09,754.56,336.09z"></path><path fill="#9bd" d="M754.61,524.19c-0.4,0-0.79,0-1.19-0.01c-22.78-0.31-44.07-9.47-59.96-25.79      c-15.89-16.33-24.47-37.86-24.16-60.64c0.31-22.78,9.47-44.07,25.8-59.96c16.33-15.89,37.86-24.48,60.64-24.16      c22.78,0.31,44.07,9.47,59.96,25.8c15.89,16.33,24.47,37.86,24.16,60.64c-0.31,22.78-9.47,44.07-25.79,59.96      C798.02,515.63,776.95,524.19,754.61,524.19z M754.55,357.6c-21.3,0-41.38,8.16-56.67,23.04      c-15.56,15.15-24.3,35.45-24.59,57.16c-0.29,21.71,7.88,42.24,23.03,57.81c31.27,32.13,82.84,32.83,114.97,1.56l1.39,1.43      l-1.39-1.43c32.13-31.27,32.83-82.84,1.56-114.97c-15.15-15.56-35.45-24.3-57.16-24.59C755.3,357.6,754.92,357.6,754.55,357.6z"></path><path fill="#9bd" d="M804.5 490.33l-2.72-2.91c4.84-4.52 8.98-9.68 12.3-15.34l3.44 2.02C814.01 480.09 809.63 485.55 804.5 490.33zM823.96 458.03l-3.84-1.06c6.37-23.18-.08-48.28-16.83-65.49l2.86-2.78c8.91 9.16 15.23 20.52 18.28 32.85C827.39 433.53 827.23 446.14 823.96 458.03z"></path><polygon fill="#9bd" points="669.74 544.78 644.28 518.62 666.71 496.79 669.49 499.65 649.92 518.69 669.82 539.15 689.05 520.44 691.82 523.29"></polygon><path fill="#9bd" d="M536.65 686.31l-37.46-38.49 141.95-138.15 37.46 38.49L536.65 686.31zM504.83 647.9l31.9 32.77 136.24-132.59-31.9-32.77L504.83 647.9zM333.97 470.52c-1.22 0-2.43-.47-3.34-1.34l-4.44-4.27 28.18-11.14-.31 6.15c-.1 1.88-1.29 3.54-3.03 4.23l-15.29 6.05C335.16 470.41 334.56 470.52 333.97 470.52zM333.41 466.32c.23.21.56.27.85.15l15.29-6.05c.29-.11.49-.38.52-.69L333.41 466.32z"></path><path fill="#9bd" d="M327.01,468.02c-1.77,0-3.54-0.43-5.14-1.27l-9.35-4.91c-2.34-1.23-4.17-3.26-5.14-5.72l-9.23-23.33        l54.71-21.63l9.23,23.33c0.97,2.46,1.03,5.19,0.16,7.69l-3.46,9.98c-1.06,3.05-3.38,5.48-6.38,6.66l-21.33,8.43        C329.77,467.77,328.39,468.02,327.01,468.02z M303.32,435.03l7.76,19.62c0.62,1.57,1.79,2.87,3.29,3.66l9.35,4.91        c1.83,0.96,3.97,1.07,5.89,0.32l21.33-8.43c1.92-0.76,3.41-2.31,4.08-4.26l3.46-9.98c0.55-1.6,0.52-3.35-0.11-4.92        l-7.76-19.62L303.32,435.03z"></path><path fill="#9bd" d="M299.85,435.88c-2.6,0-5.11-1.46-6.31-3.9l-0.02-0.04c-6.92-14.04-12.94-17.31-22.05-22.25        c-4.48-2.43-9.56-5.19-15.8-9.69l-0.34-0.25c-0.33-0.24-0.66-0.48-0.98-0.73l-0.28-0.21c-0.3-0.23-0.59-0.45-0.88-0.69        c-0.12-0.1-0.25-0.2-0.37-0.3c-0.31-0.25-0.62-0.5-0.92-0.75l-0.21-0.17c-0.36-0.3-0.72-0.61-1.07-0.92l-0.34-0.3        c-0.27-0.24-0.54-0.48-0.8-0.72l-0.31-0.28c-0.35-0.32-0.69-0.65-1.03-0.98l-0.23-0.23c-0.28-0.27-0.55-0.54-0.82-0.81        l-0.32-0.32c-0.3-0.31-0.6-0.62-0.89-0.93l-0.13-0.14c-0.33-0.35-0.65-0.71-0.98-1.07l-0.28-0.32        c-0.25-0.28-0.5-0.57-0.75-0.86l-0.25-0.29c-0.31-0.37-0.62-0.75-0.93-1.12l-0.2-0.25c-0.25-0.31-0.49-0.62-0.74-0.94        l-0.26-0.34c-0.28-0.36-0.55-0.73-0.82-1.1l-0.07-0.09c-0.29-0.4-0.58-0.81-0.86-1.21l-0.23-0.34        c-0.22-0.33-0.44-0.65-0.66-0.99l-0.2-0.3c-0.27-0.42-0.54-0.84-0.8-1.26l-0.16-0.27c-0.21-0.35-0.42-0.7-0.63-1.05        l-0.21-0.36c-0.25-0.42-0.49-0.85-0.73-1.28l-0.02-0.03c-0.25-0.46-0.49-0.91-0.73-1.36l-0.19-0.37        c-0.19-0.37-0.37-0.73-0.55-1.1l-0.15-0.31c-0.22-0.46-0.44-0.92-0.65-1.38l-0.14-0.3c-0.17-0.38-0.34-0.76-0.5-1.15        l-0.17-0.39c-0.2-0.48-0.4-0.96-0.59-1.44c-0.21-0.53-0.41-1.07-0.61-1.6c-0.04-0.1-0.08-0.21-0.11-0.31l-0.09-0.26        c-0.12-0.34-0.24-0.68-0.36-1.03c-0.05-0.14-0.09-0.27-0.13-0.41l-0.12-0.35c-0.09-0.28-0.19-0.56-0.27-0.85        c-0.05-0.16-0.09-0.31-0.14-0.46l-0.11-0.37c-0.08-0.26-0.16-0.52-0.23-0.78c-0.05-0.17-0.09-0.34-0.14-0.51l-0.08-0.3        c-0.07-0.27-0.15-0.54-0.22-0.82c-0.05-0.18-0.09-0.35-0.13-0.53l-0.07-0.3c-0.06-0.26-0.13-0.53-0.19-0.79        c-0.05-0.2-0.09-0.4-0.13-0.6l-0.04-0.2c-0.06-0.28-0.12-0.55-0.18-0.83c-0.05-0.22-0.09-0.44-0.13-0.66l-0.02-0.09        c-0.06-0.3-0.11-0.59-0.17-0.88c-0.04-0.23-0.08-0.46-0.12-0.69l-0.01-0.06c-0.05-0.29-0.1-0.58-0.14-0.87        c-0.04-0.25-0.08-0.51-0.11-0.76c-0.04-0.29-0.08-0.58-0.12-0.87c-0.03-0.25-0.06-0.51-0.09-0.76        c-0.03-0.29-0.07-0.58-0.1-0.87c-0.03-0.25-0.05-0.51-0.08-0.76c-0.03-0.29-0.05-0.58-0.08-0.86        c-0.02-0.25-0.04-0.51-0.06-0.76c-0.02-0.29-0.04-0.58-0.05-0.86c-0.01-0.25-0.03-0.51-0.04-0.76        c-0.01-0.29-0.02-0.57-0.03-0.86c-0.01-0.25-0.02-0.51-0.02-0.76c-0.01-0.29-0.01-0.57-0.01-0.86c0-0.25,0-0.51,0-0.76        c0-0.29,0.01-0.57,0.01-0.86c0-0.25,0.01-0.51,0.02-0.76c0.01-0.29,0.02-0.57,0.03-0.86l0-0.03c0.01-0.24,0.02-0.48,0.03-0.72        c0.01-0.29,0.03-0.58,0.05-0.86l0.01-0.12c0.01-0.21,0.03-0.42,0.04-0.63c0.02-0.27,0.04-0.53,0.07-0.8l0.02-0.22        c0.02-0.19,0.03-0.39,0.05-0.58c0.03-0.26,0.05-0.51,0.08-0.76l0.03-0.29c0.02-0.18,0.04-0.36,0.06-0.54        c0.03-0.25,0.06-0.49,0.1-0.74l0.05-0.36c0.02-0.17,0.04-0.33,0.07-0.49c0.04-0.24,0.07-0.48,0.11-0.72l0.06-0.39        c0.02-0.15,0.05-0.31,0.08-0.46c0.05-0.26,0.09-0.52,0.14-0.78l0.07-0.37c0.03-0.14,0.05-0.28,0.08-0.43        c0.06-0.32,0.13-0.65,0.2-0.97l0.06-0.27c0.02-0.11,0.04-0.22,0.07-0.32c0.11-0.52,0.24-1.03,0.36-1.55        c0.02-0.08,0.04-0.16,0.06-0.23l0.04-0.14c0.1-0.39,0.2-0.78,0.3-1.17c0.03-0.13,0.07-0.26,0.11-0.39l0.11-0.38        c0.07-0.26,0.14-0.51,0.22-0.76c0.04-0.15,0.09-0.3,0.14-0.44l0.12-0.38c0.07-0.23,0.14-0.46,0.22-0.69        c0.05-0.16,0.11-0.32,0.16-0.48l0.12-0.36c0.07-0.22,0.15-0.45,0.23-0.67c0.06-0.17,0.12-0.34,0.18-0.51l0.11-0.31        c0.08-0.23,0.16-0.45,0.25-0.67c0.07-0.19,0.14-0.37,0.21-0.55l0.09-0.23c0.09-0.23,0.18-0.47,0.28-0.7        c0.07-0.19,0.15-0.37,0.23-0.56l0.07-0.17c0.1-0.25,0.21-0.5,0.31-0.74c0.09-0.21,0.18-0.42,0.27-0.62l0.05-0.1        c0.11-0.24,0.22-0.49,0.33-0.73c0.1-0.22,0.2-0.43,0.3-0.64l0.02-0.05c0.12-0.25,0.24-0.5,0.36-0.75        c0.11-0.23,0.22-0.46,0.34-0.69c0.12-0.25,0.25-0.49,0.37-0.74c0.12-0.23,0.24-0.45,0.36-0.68c0.13-0.24,0.26-0.48,0.39-0.72        c0.12-0.23,0.25-0.45,0.37-0.68c0.13-0.24,0.27-0.48,0.4-0.71c0.13-0.22,0.26-0.45,0.39-0.67c0.14-0.24,0.28-0.47,0.42-0.71        c0.13-0.22,0.27-0.44,0.41-0.66c0.14-0.23,0.29-0.46,0.44-0.69c0.14-0.22,0.28-0.43,0.42-0.65c0.15-0.23,0.3-0.46,0.46-0.69        c0.14-0.21,0.29-0.43,0.43-0.64c0.16-0.23,0.31-0.45,0.47-0.67l0.02-0.03c0.14-0.2,0.29-0.4,0.43-0.6        c0.16-0.22,0.32-0.43,0.48-0.64l0.04-0.06c0.14-0.19,0.29-0.39,0.43-0.58c0.15-0.2,0.31-0.4,0.47-0.6l0.1-0.12        c0.14-0.18,0.28-0.36,0.42-0.54c0.15-0.19,0.31-0.38,0.46-0.57l0.17-0.21c0.13-0.15,0.25-0.31,0.38-0.46        c0.15-0.18,0.31-0.36,0.47-0.54l0.2-0.24c0.13-0.15,0.25-0.29,0.38-0.44c0.15-0.18,0.31-0.35,0.47-0.52l0.23-0.26        c0.12-0.14,0.25-0.28,0.37-0.41c0.15-0.17,0.31-0.33,0.46-0.49l0.28-0.3c0.12-0.13,0.24-0.25,0.36-0.38        c0.15-0.16,0.31-0.32,0.47-0.48l0.32-0.32c0.11-0.11,0.23-0.23,0.34-0.34c0.19-0.19,0.39-0.38,0.58-0.56l0.3-0.28        c0.09-0.09,0.19-0.18,0.29-0.27c0.39-0.36,0.78-0.72,1.18-1.08c0.11-0.1,0.22-0.19,0.32-0.28l0.31-0.27        c0.19-0.17,0.39-0.34,0.59-0.51c0.13-0.11,0.25-0.21,0.38-0.32l0.36-0.3c0.17-0.14,0.34-0.28,0.51-0.42        c0.14-0.11,0.28-0.22,0.42-0.33l0.34-0.27c0.17-0.14,0.34-0.27,0.52-0.41c0.15-0.12,0.31-0.23,0.47-0.35l0.31-0.23        c0.18-0.13,0.36-0.27,0.54-0.4c0.16-0.12,0.32-0.23,0.48-0.34l0.3-0.21c0.19-0.13,0.37-0.26,0.56-0.39        c0.18-0.12,0.35-0.24,0.53-0.36l0.23-0.16c0.2-0.13,0.4-0.27,0.6-0.4c0.2-0.13,0.4-0.26,0.59-0.38l0.16-0.1        c0.21-0.14,0.42-0.27,0.64-0.4c0.2-0.13,0.41-0.25,0.62-0.38l0.08-0.05c0.24-0.15,0.48-0.29,0.72-0.43        c0.24-0.14,0.48-0.28,0.72-0.41c0.24-0.14,0.49-0.28,0.73-0.41c0.24-0.13,0.49-0.27,0.73-0.4c0.25-0.13,0.49-0.27,0.74-0.4        c0.25-0.13,0.49-0.26,0.74-0.38c0.25-0.13,0.5-0.25,0.76-0.38c0.25-0.12,0.5-0.25,0.76-0.37l0.15-0.07        c0.08-0.04,0.16-0.08,0.24-0.12c0.07-0.03,0.14-0.06,0.21-0.09l0.12-0.06c0.33-0.15,0.66-0.3,0.99-0.45        c0.23-0.1,0.47-0.21,0.7-0.31c0.32-0.14,0.65-0.27,0.97-0.41l0.13-0.05c0.2-0.08,0.39-0.16,0.59-0.24l0.09-0.04        c0.06-0.02,0.11-0.05,0.17-0.07c0.17-0.07,0.34-0.13,0.51-0.2l0.46-0.17c0.15-0.06,0.3-0.12,0.45-0.17        c0.45-0.17,0.9-0.33,1.35-0.48l0.3-0.11c32.43-11.07,68,3.91,82.74,34.84l0.14,0.3c0.2,0.42,0.39,0.83,0.57,1.25        c0.08,0.19,0.17,0.38,0.25,0.57c0.15,0.34,0.3,0.69,0.44,1.03c0.1,0.24,0.2,0.47,0.29,0.71l0.07,0.16        c0.04,0.08,0.07,0.17,0.1,0.25c0.05,0.11,0.09,0.23,0.13,0.34l0.07,0.2c0.1,0.25,0.19,0.5,0.29,0.75        c0.12,0.33,0.24,0.66,0.36,1l0.06,0.16c0.06,0.18,0.13,0.36,0.19,0.55c0.13,0.37,0.25,0.75,0.37,1.12l0.06,0.18        c0.03,0.1,0.06,0.19,0.09,0.29l0.17,0.55c0.13,0.43,0.26,0.85,0.38,1.28l0.06,0.19c0.13,0.47,0.26,0.93,0.38,1.4l0.1,0.38        c0.12,0.46,0.23,0.93,0.34,1.39l0.07,0.3c0.09,0.41,0.18,0.82,0.26,1.23l0.07,0.32c0.09,0.47,0.18,0.93,0.26,1.39l0.07,0.38        c0.08,0.47,0.16,0.93,0.23,1.4l0.03,0.19c0.06,0.43,0.12,0.87,0.18,1.3l0.05,0.38c0.06,0.46,0.11,0.92,0.16,1.38l0.03,0.36        c0.04,0.41,0.08,0.81,0.11,1.22l0.02,0.28c0.03,0.46,0.06,0.92,0.09,1.38l0.02,0.41c0.02,0.46,0.04,0.92,0.05,1.37l0.01,0.29        c0.01,0.4,0.01,0.8,0.02,1.2l0,0.38c0,0.45-0.01,0.9-0.02,1.35l-0.01,0.41c-0.01,0.41-0.03,0.82-0.04,1.23l-0.01,0.28        c-0.02,0.44-0.05,0.87-0.08,1.3l-0.03,0.42c-0.03,0.44-0.07,0.89-0.11,1.33l-0.04,0.37c-0.04,0.37-0.08,0.75-0.12,1.12        l-0.04,0.36c-0.05,0.44-0.11,0.87-0.18,1.31l-0.06,0.43c-0.06,0.43-0.13,0.86-0.2,1.29l-0.05,0.31        c-0.04,0.24-0.08,0.47-0.13,0.71l-0.14,0.72c-1.46,7.61-3.33,13.15-4.97,18.05c-3.32,9.87-5.52,16.4-0.98,31.3        c1.04,3.42-0.71,7.12-3.99,8.5c-15.37,8.68-31.94,15.23-49.25,19.47C301.47,435.74,300.65,435.88,299.85,435.88z         M297.12,430.24c0.7,1.39,2.37,2.03,3.81,1.45l0.13-0.05l0.13-0.03c17.04-4.17,33.34-10.62,48.46-19.16l0.12-0.07l0.13-0.05        c1.45-0.57,2.23-2.19,1.78-3.69c-4.91-16.13-2.43-23.52,1.01-33.74c1.61-4.77,3.43-10.18,4.84-17.54l0.13-0.68        c0.04-0.22,0.08-0.45,0.12-0.67l0.05-0.29c0.07-0.4,0.13-0.81,0.19-1.21l0.06-0.41c0.06-0.41,0.11-0.82,0.17-1.23l0.04-0.34        c0.04-0.35,0.08-0.7,0.12-1.05l0.04-0.35c0.04-0.41,0.07-0.83,0.11-1.25l0.03-0.4c0.03-0.41,0.05-0.81,0.07-1.22l0.01-0.26        c0.02-0.39,0.03-0.77,0.04-1.16l0.01-0.38c0.01-0.42,0.01-0.85,0.01-1.27l0-0.35c0-0.37-0.01-0.75-0.01-1.12l-0.01-0.27        c-0.01-0.43-0.03-0.86-0.05-1.29l-0.02-0.38c-0.02-0.43-0.05-0.87-0.08-1.3l-0.02-0.26c-0.03-0.38-0.06-0.77-0.1-1.15        l-0.03-0.34c-0.04-0.43-0.09-0.86-0.15-1.29l-0.05-0.36c-0.05-0.41-0.11-0.82-0.17-1.23l-0.02-0.17        c-0.07-0.44-0.14-0.88-0.21-1.31l-0.06-0.36c-0.08-0.44-0.16-0.87-0.25-1.31l-0.06-0.3c-0.08-0.38-0.16-0.77-0.25-1.15        l-0.06-0.28c-0.1-0.43-0.21-0.87-0.32-1.3l-0.09-0.36c-0.11-0.44-0.23-0.88-0.36-1.32l-0.05-0.18c-0.11-0.4-0.23-0.8-0.36-1.2        l-0.16-0.51c-0.02-0.07-0.05-0.14-0.07-0.21l-0.08-0.23c-0.11-0.35-0.23-0.7-0.35-1.06c-0.06-0.17-0.12-0.33-0.18-0.5        l-0.06-0.16c-0.11-0.31-0.22-0.63-0.34-0.94c-0.09-0.24-0.18-0.47-0.27-0.71l-0.09-0.23c-0.03-0.09-0.07-0.18-0.11-0.28        c-0.03-0.06-0.05-0.13-0.08-0.19l-0.08-0.2c-0.09-0.22-0.18-0.45-0.28-0.67c-0.14-0.32-0.27-0.65-0.41-0.97        c-0.08-0.18-0.16-0.36-0.24-0.53c-0.18-0.4-0.36-0.79-0.54-1.18l-0.13-0.28c-13.87-29.11-47.34-43.2-77.86-32.79l-0.29,0.1        c-0.42,0.15-0.85,0.3-1.27,0.45c-0.14,0.05-0.27,0.1-0.4,0.15l-0.48,0.18c-0.15,0.06-0.3,0.11-0.45,0.17l-0.24,0.1        c-0.18,0.07-0.36,0.15-0.54,0.22l-0.13,0.05c-0.3,0.13-0.61,0.25-0.91,0.38c-0.22,0.09-0.44,0.19-0.66,0.29        c-0.31,0.14-0.62,0.28-0.93,0.42l-0.31,0.14c-0.06,0.03-0.12,0.06-0.18,0.09l-0.19,0.09c-0.24,0.11-0.47,0.23-0.71,0.34        c-0.24,0.12-0.48,0.24-0.71,0.36c-0.23,0.12-0.47,0.24-0.7,0.36c-0.23,0.12-0.47,0.25-0.7,0.37        c-0.23,0.12-0.46,0.25-0.69,0.38c-0.23,0.13-0.46,0.26-0.69,0.39c-0.22,0.13-0.45,0.26-0.67,0.39        c-0.23,0.13-0.45,0.27-0.68,0.41l-0.08,0.05c-0.19,0.12-0.39,0.23-0.58,0.35c-0.2,0.12-0.4,0.25-0.6,0.38l-0.16,0.1        c-0.19,0.12-0.37,0.24-0.55,0.36c-0.19,0.12-0.37,0.25-0.56,0.37l-0.24,0.16c-0.16,0.11-0.33,0.22-0.49,0.33        c-0.17,0.12-0.34,0.24-0.51,0.36l-0.31,0.22c-0.15,0.1-0.29,0.21-0.44,0.31c-0.17,0.12-0.33,0.24-0.49,0.37l-0.32,0.24        c-0.14,0.11-0.28,0.21-0.42,0.32c-0.16,0.12-0.32,0.25-0.47,0.37l-0.36,0.28c-0.13,0.1-0.25,0.2-0.38,0.3        c-0.16,0.13-0.31,0.26-0.47,0.39l-0.37,0.31c-0.11,0.09-0.23,0.19-0.34,0.28c-0.18,0.15-0.36,0.31-0.54,0.47l-0.34,0.29        c-0.09,0.08-0.19,0.16-0.28,0.24c-0.38,0.33-0.75,0.67-1.11,1.02c-0.08,0.08-0.16,0.15-0.24,0.23l-0.32,0.3        c-0.18,0.17-0.36,0.34-0.54,0.52c-0.1,0.1-0.2,0.2-0.3,0.3l-0.34,0.34c-0.14,0.14-0.29,0.29-0.43,0.44        c-0.11,0.11-0.22,0.23-0.32,0.34l-0.3,0.31c-0.14,0.15-0.28,0.3-0.42,0.45c-0.11,0.12-0.22,0.25-0.34,0.37l-0.24,0.27        c-0.15,0.16-0.29,0.32-0.43,0.48c-0.12,0.13-0.23,0.26-0.34,0.4l-0.21,0.24c-0.14,0.17-0.29,0.33-0.43,0.5        c-0.12,0.14-0.23,0.28-0.35,0.42l-0.18,0.22c-0.14,0.18-0.29,0.35-0.43,0.53c-0.13,0.17-0.26,0.33-0.39,0.5l-0.1,0.12        c-0.15,0.19-0.29,0.37-0.44,0.56c-0.14,0.18-0.27,0.36-0.41,0.54l-0.03,0.04c-0.16,0.22-0.31,0.42-0.46,0.62        c-0.14,0.19-0.27,0.38-0.41,0.57c-0.17,0.24-0.32,0.45-0.46,0.66c-0.14,0.2-0.27,0.4-0.41,0.6c-0.14,0.21-0.29,0.43-0.43,0.65        c-0.13,0.2-0.26,0.41-0.39,0.61c-0.14,0.22-0.28,0.44-0.41,0.65c-0.13,0.21-0.26,0.41-0.38,0.62        c-0.13,0.22-0.27,0.44-0.4,0.66c-0.12,0.21-0.25,0.42-0.37,0.63c-0.13,0.22-0.25,0.45-0.38,0.67        c-0.12,0.21-0.24,0.42-0.35,0.64c-0.12,0.23-0.24,0.45-0.37,0.68c-0.11,0.21-0.23,0.43-0.34,0.64        c-0.12,0.23-0.23,0.46-0.35,0.69c-0.11,0.21-0.21,0.43-0.32,0.65c-0.11,0.23-0.22,0.47-0.34,0.7l-0.02,0.05        c-0.09,0.2-0.19,0.4-0.28,0.6c-0.1,0.23-0.2,0.45-0.31,0.68l-0.05,0.1c-0.09,0.19-0.17,0.39-0.26,0.58        c-0.1,0.23-0.2,0.46-0.29,0.7l-0.07,0.17c-0.07,0.17-0.14,0.34-0.21,0.52c-0.09,0.22-0.17,0.44-0.26,0.65l-0.09,0.24        c-0.07,0.17-0.13,0.34-0.19,0.51c-0.08,0.21-0.15,0.42-0.23,0.62l-0.11,0.32c-0.06,0.15-0.11,0.31-0.17,0.46        c-0.07,0.21-0.14,0.41-0.21,0.62l-0.13,0.38c-0.05,0.14-0.1,0.28-0.14,0.43c-0.07,0.21-0.13,0.43-0.2,0.64l-0.12,0.4        c-0.04,0.13-0.08,0.26-0.12,0.39c-0.07,0.23-0.14,0.47-0.2,0.71l-0.11,0.4c-0.03,0.11-0.06,0.22-0.09,0.33        c-0.1,0.37-0.19,0.73-0.29,1.1l-0.09,0.35c-0.12,0.49-0.23,0.97-0.34,1.46c-0.02,0.09-0.04,0.17-0.06,0.26l-0.06,0.3        c-0.06,0.3-0.13,0.61-0.19,0.91c-0.02,0.12-0.05,0.25-0.07,0.37l-0.07,0.39c-0.04,0.24-0.09,0.48-0.13,0.72        c-0.02,0.13-0.04,0.27-0.07,0.41l-0.07,0.41c-0.04,0.22-0.07,0.45-0.11,0.67c-0.02,0.15-0.04,0.3-0.06,0.44l-0.05,0.37        c-0.03,0.23-0.06,0.46-0.09,0.68c-0.02,0.16-0.04,0.33-0.06,0.49l-0.03,0.3c-0.03,0.24-0.05,0.47-0.08,0.71        c-0.02,0.18-0.03,0.36-0.05,0.54l-0.02,0.23c-0.02,0.25-0.04,0.5-0.06,0.74c-0.01,0.19-0.03,0.39-0.04,0.58l-0.01,0.12        c-0.02,0.27-0.03,0.54-0.05,0.81c-0.01,0.22-0.02,0.45-0.03,0.67l0,0.04c-0.01,0.27-0.02,0.54-0.03,0.81        c-0.01,0.24-0.01,0.48-0.01,0.71c0,0.27-0.01,0.54-0.01,0.81c0,0.24,0,0.48,0,0.71c0,0.27,0.01,0.54,0.01,0.81        c0.01,0.24,0.01,0.48,0.02,0.72c0.01,0.27,0.02,0.54,0.03,0.81c0.01,0.24,0.02,0.48,0.04,0.72c0.02,0.27,0.03,0.54,0.05,0.81        c0.02,0.24,0.03,0.48,0.05,0.72c0.02,0.27,0.05,0.54,0.07,0.81c0.02,0.24,0.05,0.48,0.07,0.72c0.03,0.27,0.06,0.54,0.09,0.81        c0.03,0.24,0.06,0.48,0.09,0.72c0.04,0.27,0.07,0.55,0.11,0.82c0.03,0.24,0.07,0.48,0.11,0.71c0.04,0.27,0.09,0.55,0.13,0.82        l0.01,0.06c0.04,0.22,0.07,0.43,0.11,0.65c0.05,0.27,0.1,0.54,0.15,0.81l0.02,0.1c0.04,0.21,0.08,0.41,0.12,0.62        c0.05,0.26,0.11,0.52,0.17,0.77l0.04,0.2c0.04,0.19,0.08,0.37,0.12,0.55c0.06,0.25,0.12,0.49,0.18,0.74l0.08,0.31        c0.04,0.16,0.08,0.32,0.12,0.48c0.07,0.25,0.13,0.51,0.2,0.76l0.08,0.31c0.04,0.15,0.08,0.3,0.12,0.45        c0.07,0.24,0.14,0.48,0.21,0.72l0.12,0.39c0.04,0.14,0.08,0.27,0.12,0.41c0.08,0.26,0.17,0.52,0.25,0.79l0.12,0.38        c0.04,0.12,0.08,0.24,0.12,0.35c0.11,0.32,0.22,0.64,0.34,0.96l0.1,0.3c0.03,0.08,0.06,0.17,0.09,0.25        c0.18,0.5,0.38,1.01,0.57,1.51c0.18,0.46,0.37,0.91,0.56,1.36l0.16,0.37c0.16,0.36,0.31,0.72,0.48,1.08l0.13,0.28        c0.2,0.44,0.4,0.87,0.61,1.3l0.14,0.29c0.17,0.35,0.34,0.69,0.52,1.04l0.18,0.35c0.22,0.43,0.45,0.85,0.68,1.27l0.02,0.04        c0.22,0.4,0.45,0.8,0.68,1.2l0.18,0.32c0.21,0.36,0.41,0.69,0.61,1.02l0.15,0.25c0.25,0.4,0.5,0.79,0.75,1.18l0.18,0.28        c0.21,0.31,0.41,0.62,0.62,0.93l0.22,0.32c0.27,0.38,0.53,0.76,0.81,1.14l0.06,0.09c0.26,0.35,0.51,0.7,0.77,1.04l0.25,0.32        c0.23,0.3,0.46,0.59,0.69,0.88l0.18,0.23c0.29,0.36,0.58,0.71,0.87,1.06l0.23,0.27c0.23,0.27,0.47,0.54,0.7,0.81l0.27,0.3        c0.3,0.34,0.61,0.68,0.92,1.01l0.12,0.13c0.28,0.29,0.56,0.58,0.84,0.87l0.3,0.3c0.25,0.26,0.51,0.51,0.77,0.76l0.22,0.22        c0.32,0.31,0.65,0.62,0.97,0.92l0.29,0.26c0.25,0.23,0.5,0.46,0.76,0.68l0.32,0.28c0.33,0.29,0.67,0.58,1.01,0.86l0.19,0.16        c0.29,0.24,0.58,0.47,0.87,0.71c0.12,0.09,0.23,0.19,0.35,0.28c0.28,0.22,0.55,0.43,0.83,0.64l0.26,0.2        c0.31,0.23,0.62,0.46,0.93,0.69l0,0l0.33,0.24c6.03,4.36,11,7.05,15.37,9.43c9.44,5.12,16.26,8.82,23.74,24.03L297.12,430.24z        "></path><path fill="#9bd" d="M317.72,429.1c-0.03-0.08-3.14-8.32-21.71-46.27c-1.75-3.58-3.54-6.48-5.28-8.78        c-11.13,1.53-16.48-1.22-17.72-4.86c-0.88-2.56,0.5-5.25,3.28-6.4c3.03-1.26,6.95-0.51,10.74,2.05        c1.85,1.25,3.64,2.89,5.37,4.9c1.99-0.35,4.19-0.84,6.62-1.51c7-1.91,12.31-4.11,16.24-6.36c-0.76-5.84-0.54-9.97,0.64-12.55        c1.99-4.35,5.26-5.38,7.66-4.91c2.86,0.57,4.86,3.16,4.98,6.43c0.07,2.07-0.66,7.48-8.95,13.04        c0.97,5.93,2.98,14.35,6.72,26.32c5.06,16.17,10.9,31.01,10.95,31.16l-3.71,1.46c-0.06-0.15-5.94-15.11-11.04-31.41        c-3.01-9.61-5.16-17.8-6.41-24.37c-0.06-0.33-0.12-0.66-0.18-0.98c-3.94,2.1-9.1,4.16-15.84,6c-1.75,0.48-3.4,0.88-4.97,1.21        c1.56,2.27,3.06,4.87,4.49,7.8c18.75,38.32,21.75,46.32,21.87,46.64L317.72,429.1z M279.46,366.16c-0.62,0-1.18,0.11-1.65,0.3        c-0.62,0.25-1.26,0.78-1.03,1.43c0.46,1.34,3.66,3.01,10.73,2.48C284.38,367.35,281.54,366.16,279.46,366.16z M322.44,348.29        c-1.06,0-2.15,1-2.93,2.69c-0.55,1.2-1,3.61-0.53,8.45c4.03-3.08,5.64-6.09,5.56-8.44c-0.06-1.61-0.93-2.49-1.77-2.66        C322.66,348.3,322.55,348.29,322.44,348.29z"></path><rect width="55.27" height="3.98" x="302.06" y="430.58" fill="#9bd" transform="rotate(-14.455 329.73 432.609)"></rect><rect width="55.27" height="3.98" x="304.14" y="435.83" fill="#9bd" transform="rotate(-14.455 331.807 437.862)"></rect><rect width="55.27" height="3.98" x="306.22" y="441.09" fill="#9bd" transform="rotate(-14.453 333.8 443.017)"></rect><rect width="52.67" height="3.98" x="308.34" y="446.66" fill="#9bd" transform="rotate(-14.455 334.684 448.672)"></rect><rect width="21.14" height="3.98" x="365.96" y="310.95" fill="#9bd" transform="rotate(-21.575 376.58 312.974)"></rect><rect width="21.14" height="3.98" x="338.96" y="274.56" fill="#9bd" transform="rotate(-51.574 349.552 276.563)"></rect><rect width="21.14" height="3.98" x="297.38" y="256.55" fill="#9bd" transform="rotate(-81.576 307.96 258.541)"></rect><rect width="3.98" height="21.14" x="260.94" y="253.16" fill="#9bd" transform="rotate(-21.575 262.963 263.753)"></rect><rect width="3.98" height="21.14" x="224.55" y="280.16" fill="#9bd" transform="rotate(-51.574 226.548 290.742)"></rect><rect width="3.98" height="21.14" x="206.53" y="321.74" fill="#9bd" transform="rotate(-81.576 208.522 332.317)"></rect><rect width="21.14" height="3.98" x="203.14" y="375.34" fill="#9bd" transform="rotate(-21.575 213.74 377.37)"></rect><path fill="#9bd" d="M636.1 255.18c-6.53 0-11.85-5.32-11.85-11.85s5.32-11.85 11.85-11.85c6.53 0 11.85 5.32 11.85 11.85S642.63 255.18 636.1 255.18zM636.1 235.47c-4.34 0-7.87 3.53-7.87 7.87 0 4.34 3.53 7.87 7.87 7.87 4.34 0 7.87-3.53 7.87-7.87C643.96 239 640.43 235.47 636.1 235.47zM327.35 529.24c-6.53 0-11.85-5.32-11.85-11.85 0-6.53 5.32-11.85 11.85-11.85 6.53 0 11.85 5.32 11.85 11.85C339.2 523.92 333.88 529.24 327.35 529.24zM327.35 509.52c-4.34 0-7.87 3.53-7.87 7.87 0 4.34 3.53 7.87 7.87 7.87 4.34 0 7.87-3.53 7.87-7.87C335.21 513.05 331.68 509.52 327.35 509.52zM446.83 233.28c-5.17 0-9.37-4.2-9.37-9.37 0-5.17 4.2-9.37 9.37-9.37 5.17 0 9.37 4.2 9.37 9.37C456.2 229.08 451.99 233.28 446.83 233.28zM446.83 218.53c-2.97 0-5.38 2.42-5.38 5.38 0 2.97 2.42 5.38 5.38 5.38 2.97 0 5.38-2.42 5.38-5.38C452.21 220.95 449.8 218.53 446.83 218.53zM218.44 773.48c-.15-.08-14.79-8.15-29.37-18.42C169.1 741 158.71 729.6 158.2 721.18c-.2-3.37.64-6.02 2.52-7.88 3.83-3.78 10.97-3.27 17.27-2.81 4.03.29 9.05.66 10.09-.69.35-.46.29-1.51-.17-2.9-1.78-5.31-5.05-8.83-9.72-10.46-5.98-2.08-13.76-.73-20.32 3.53-3.23 2.1-5.9 1.43-7.57.5-5.42-3.02-8.16-13.35-7.97-21.52.15-6.75 2.14-11.42 5.61-13.15 4.33-2.16 10.17-1.18 15.33-.31 3.17.53 7.51 1.26 8.35.3.26-.3.36-1.35-.24-3.32-2.16-7.11-10.35-12.11-17.51-13.92-4.76-1.2-7.53-.66-8.16-.04-.83.82-2.01 1.01-3.01.48-1.91-1.02-3.2-5.31-3.82-12.75-.36-4.26-.7-12.75 1.04-21.78 2.8-14.56 9.54-22.85 19.5-23.95 7.86-.88 16.08 1.07 23.78 5.61 6.33 3.74 12.12 9.1 16.31 15.11 4.64 6.65 6.35 12.73 4.57 16.28-1.88 3.76-3.99 8.16-5.45 12.36-2.29 6.6-1.53 8.7-1.1 9.29.4.55 1.33.73 2.76.51 5.01-.75 7.21-3.5 9.35-6.16 2.23-2.78 4.75-5.93 10.04-5.22 5.17.69 12.03 6.56 16.68 14.27 2.43 4.03 6.13 11.8 3.65 18.54-1.67 4.54-4.16 7.9-6.36 10.88-3.22 4.35-5.54 7.49-4.37 12.44.07.31.15.48.2.57.28-.03 1.14-.27 3.05-1.71 1.75-1.32 3.72-3.14 5.82-5.07 6.06-5.58 11.77-10.86 15.8-7.79 4.12 3.14 8.26 19.35 10.22 33.74 1.66 12.19 3.6 35.94-2.11 58.06l-3.86-1c5.54-21.46 3.64-44.63 2.02-56.52-2.4-17.6-6.66-29.56-8.69-31.11-.23-.17-1.22-.12-3.37 1.34-2.21 1.5-4.8 3.89-7.31 6.2-5.86 5.4-9.61 8.66-12.81 7.68-.99-.3-2.29-1.15-2.83-3.48-1.59-6.75 1.64-11.11 5.05-15.72 2.14-2.89 4.35-5.88 5.83-9.88 1.39-3.78.18-9.29-3.32-15.11-3.93-6.53-9.86-11.85-13.79-12.38-2.92-.39-4.14.94-6.4 3.76-2.37 2.95-5.32 6.63-11.87 7.61-3.76.56-5.65-.84-6.58-2.11-3.49-4.8 1.18-15.73 6.21-25.78.85-1.71-.12-6.26-4.28-12.22-7.44-10.66-21.57-20.69-36.38-19.04-5.99.67-10.54 4.73-13.53 12.07-3.48 8.53-3.83 18.86-3.73 24.26.13 6.98 1.06 11.82 1.78 13.88 3.22-1.53 8.23-.55 10.47.01 7.64 1.93 17.55 7.44 20.35 16.62.98 3.22.79 5.55-.58 7.11-2.31 2.63-6.8 1.87-12.01.99-4.56-.77-9.72-1.64-12.89-.05-1.99.99-3.29 4.7-3.4 9.67-.18 7.84 2.54 16.06 5.93 17.95.67.37 1.76.74 3.46-.36 7.57-4.92 16.69-6.44 23.81-3.95 5.81 2.03 10.03 6.51 12.19 12.96.94 2.79.78 5.01-.46 6.61-2.36 3.03-7.53 2.66-13.53 2.22-5.45-.4-11.63-.84-14.18 1.67-1.04 1.03-1.48 2.6-1.35 4.8.88 14.5 42.3 40.33 58.19 49.06L218.44 773.48z"></path><path fill="#9bd" d="M238.55 772.48c-.41-1.02-41.57-102.24-75.74-150.97l3.26-2.29c34.43 49.11 75.76 150.74 76.17 151.76L238.55 772.48zM756.19 778.99l-1.92-3.49c15.89-8.73 57.31-34.56 58.19-49.05.13-2.2-.31-3.77-1.35-4.8-2.54-2.51-8.72-2.07-14.18-1.67-6 .43-11.17.81-13.53-2.22-1.24-1.59-1.39-3.82-.46-6.61 2.16-6.45 6.38-10.93 12.19-12.96 7.12-2.48 16.24-.97 23.81 3.95 1.7 1.11 2.79.74 3.46.36 3.39-1.89 6.1-10.11 5.93-17.95-.11-4.97-1.42-8.68-3.4-9.67-3.17-1.58-8.33-.71-12.89.05-5.2.88-9.7 1.63-12.01-.99-1.37-1.56-1.56-3.89-.58-7.11 2.79-9.18 12.71-14.69 20.35-16.62 2.24-.57 7.25-1.55 10.47-.01.71-2.06 1.65-6.9 1.78-13.88.1-5.4-.25-15.73-3.73-24.26-2.99-7.34-7.55-11.41-13.53-12.07-14.81-1.64-28.95 8.38-36.38 19.04-4.16 5.96-5.13 10.51-4.28 12.22 5.03 10.05 9.7 20.98 6.21 25.78-.93 1.27-2.82 2.68-6.58 2.11-6.55-.98-9.5-4.66-11.87-7.61-2.26-2.82-3.48-4.15-6.4-3.76-3.93.53-9.86 5.85-13.79 12.38-3.5 5.82-4.71 11.32-3.32 15.11 1.47 4 3.69 6.99 5.83 9.88 3.41 4.61 6.64 8.97 5.05 15.72-.55 2.33-1.84 3.18-2.84 3.48-3.2.98-6.95-2.28-12.81-7.68-2.51-2.31-5.11-4.71-7.31-6.2-2.15-1.46-3.15-1.52-3.37-1.34-2.03 1.55-6.29 13.52-8.69 31.11-1.62 11.9-3.52 35.06 2.02 56.52l-3.86 1c-5.71-22.12-3.77-45.87-2.11-58.06 1.96-14.39 6.11-30.6 10.22-33.74 4.03-3.07 9.75 2.2 15.8 7.79 2.09 1.93 4.07 3.76 5.82 5.07 1.91 1.44 2.77 1.68 3.05 1.71.05-.09.13-.27.2-.57 1.17-4.95-1.16-8.09-4.37-12.44-2.2-2.97-4.69-6.34-6.36-10.88-2.48-6.74 1.22-14.51 3.65-18.54 4.64-7.71 11.5-13.58 16.68-14.27 5.29-.71 7.81 2.44 10.04 5.22 2.13 2.66 4.34 5.41 9.35 6.16 1.43.21 2.36.04 2.76-.51.43-.59 1.19-2.69-1.1-9.29-1.45-4.2-3.57-8.61-5.45-12.36-1.77-3.54-.06-9.63 4.57-16.28 4.19-6.01 9.98-11.38 16.31-15.11 7.7-4.54 15.92-6.49 23.78-5.61 9.96 1.11 16.7 9.39 19.5 23.95 1.73 9.03 1.39 17.52 1.04 21.78-.62 7.44-1.91 11.73-3.82 12.75-1 .53-2.18.35-3.01-.48-.63-.62-3.4-1.16-8.15.04-7.16 1.81-15.35 6.81-17.51 13.92-.6 1.97-.5 3.02-.24 3.32.84.96 5.18.23 8.35-.3 5.16-.87 11-1.85 15.33.31 3.46 1.73 5.45 6.4 5.61 13.15.18 8.18-2.55 18.5-7.97 21.52-1.67.93-4.34 1.6-7.57-.5-6.56-4.26-14.35-5.62-20.32-3.53-4.67 1.63-7.94 5.15-9.72 10.46-.46 1.39-.53 2.44-.17 2.9 1.05 1.35 6.06.99 10.09.69 6.3-.46 13.44-.97 17.27 2.81 1.88 1.86 2.73 4.51 2.52 7.88-.51 8.42-10.9 19.82-30.88 33.89C770.97 770.84 756.33 778.91 756.19 778.99z"></path><path fill="#9bd" d="M736.08 777.99l-3.69-1.5c.41-1.02 41.74-102.66 76.17-151.76l3.26 2.29C777.65 675.75 736.49 776.97 736.08 777.99zM671.28 351.7c-6.53 0-11.85-5.32-11.85-11.85 0-6.53 5.32-11.85 11.85-11.85 6.53 0 11.85 5.32 11.85 11.85C683.13 346.38 677.82 351.7 671.28 351.7zM671.28 331.98c-4.34 0-7.87 3.53-7.87 7.87 0 4.34 3.53 7.87 7.87 7.87 4.34 0 7.87-3.53 7.87-7.87C679.15 335.51 675.62 331.98 671.28 331.98zM543.15 421.2l-66.97-13.21-32.27-112.5 95.19 12L543.15 421.2zM479.34 404.55l59.65 11.77-3.74-105.3-85.84-10.82L479.34 404.55zM551.29 420.88l-4.97-113.67 93.95-19.5L617 402.41 551.29 420.88zM550.45 310.42l4.6 105.26 58.53-16.45 21.58-106.39L550.45 310.42z"></path><path fill="#9bd" d="M539.6,420.81l-4.49-113.47l15.19-0.6l4.49,113.47L539.6,420.81z M539.25,311.17l4.18,105.5l7.22-0.29      l-4.18-105.5L539.25,311.17z"></path><path fill="#9bd" d="M540.79,309.12l-0.33-8.29l0.86-0.63c0.29-0.21,7.16-5.15,20.48-9.73c12.2-4.19,32.38-8.85,59.22-7.2      l0.54,0.03l8.42,5.68l-2.23,3.3l-7.52-5.07c-44.73-2.6-70.76,12.46-75.71,15.63l0.24,6.12L540.79,309.12z"></path><path fill="#9bd" d="M540.79,309.12l-0.24-6.12c-2.3-1.23-8.93-4.49-19.38-7.16c-12.03-3.07-31.71-5.97-57.32-2.44l-7.1,5.65      l-2.48-3.12l7.95-6.33l0.54-0.08c26.63-3.76,47.11-0.72,59.6,2.5c13.63,3.51,20.88,7.89,21.18,8.08l0.91,0.56l0.33,8.29      L540.79,309.12z"></path><path fill="#9bd" d="M544.41,302.35l-3.84-1.07c0.22-0.78,5.69-19.13,42.14-23.22c34.29-3.85,44.11-10.19,44.2-10.25l5.78-3.86      l-2.85,6.32l-7.13,15.8l-3.63-1.64l4.91-10.89c-6.09,2.36-18.36,5.94-40.84,8.47c-17.61,1.98-27.22,7.44-32.19,11.67      C545.67,298.21,544.42,302.31,544.41,302.35z"></path><rect width="11.37" height="3.98" x="537.49" y="318.93" fill="#9bd" transform="rotate(-2.292 542.419 320.779)"></rect><rect width="11.37" height="3.98" x="537.86" y="328.22" fill="#9bd" transform="rotate(-2.292 542.784 330.064)"></rect><rect width="11.37" height="3.98" x="540.69" y="402.91" fill="#9bd" transform="rotate(-1.862 546.89 405.277)"></rect><rect width="11.37" height="3.98" x="540.38" y="393.61" fill="#9bd" transform="rotate(-1.862 546.586 395.97)"></rect><path fill="#9bd" d="M546.86 304.71c1.17-.89 2.43-1.64 3.69-2.37 1.27-.72 2.58-1.39 3.9-2.01 2.65-1.24 5.37-2.32 8.14-3.26l2.09-.67c.7-.23 1.4-.42 2.1-.62 1.41-.4 2.82-.76 4.25-1.08 1.42-.35 2.86-.59 4.29-.87 1.44-.23 2.89-.44 4.34-.59-1.38.48-2.78.88-4.17 1.31l-2.08.64c-.69.21-1.39.41-2.08.63-.69.22-1.38.44-2.07.64-.69.2-1.38.44-2.07.67-1.38.43-2.75.9-4.12 1.35-2.73.93-5.46 1.89-8.16 2.92C552.21 302.45 549.52 303.51 546.86 304.71zM571.29 299.44c3.58-1.75 7.34-3.08 11.14-4.25 3.81-1.16 7.67-2.13 11.57-2.92.98-.19 1.96-.36 2.93-.55l1.47-.26 1.48-.22 2.95-.43c.99-.12 1.98-.23 2.96-.33 1.97-.24 3.96-.34 5.94-.49.5-.03.99-.06 1.49-.07l1.49-.04c.99-.02 1.99-.04 2.98-.04-1.96.34-3.93.57-5.88.88l-2.93.45c-.49.08-.98.14-1.47.22l-1.46.24c-.97.17-1.95.33-2.92.47l-2.91.53-1.46.25-1.45.28c-.97.19-1.94.36-2.91.56-3.87.78-7.72 1.63-11.56 2.57C578.9 297.27 575.08 298.27 571.29 299.44zM541.3 303.99c-3.04-.72-6.05-1.51-9.06-2.31l-9-2.4-9-2.37-9.05-2.29c3.12.17 6.23.59 9.3 1.15 3.07.58 6.12 1.25 9.14 2.06 3.02.81 6 1.72 8.96 2.73C535.53 301.58 538.46 302.68 541.3 303.99zM525 303.61c-4.32-.68-8.62-1.43-12.92-2.18l-6.44-1.12-3.22-.57-3.22-.55c-2.15-.37-4.29-.75-6.44-1.09-1.07-.18-2.15-.38-3.22-.54-1.08-.16-2.15-.34-3.23-.52-4.31-.67-8.61-1.3-12.95-1.9 4.38-.03 8.75.29 13.1.74 2.18.23 4.35.51 6.51.82 1.08.15 2.16.32 3.24.49l3.24.52c2.15.39 4.3.77 6.45 1.21 1.07.21 2.14.44 3.21.67 1.07.22 2.14.46 3.2.71C516.57 301.27 520.81 302.33 525 303.61z"></path><g><path fill="#9bd" d="M779.72,592.11c-1.67-9.36-6.88-17.5-14.68-22.94c-7.8-5.44-17.25-7.51-26.6-5.84l-0.7-3.92       c10.41-1.86,20.91,0.45,29.58,6.49c8.67,6.04,14.47,15.1,16.33,25.51L779.72,592.11z"></path><path fill="#9bd" d="M767.74 595.36c-2.36-13.2-15.01-22.02-28.21-19.66l-.7-3.92c7.44-1.33 14.95.32 21.15 4.64 6.2 4.32 10.35 10.8 11.67 18.24L767.74 595.36zM755.76 598.6c-.61-3.43-2.52-6.41-5.38-8.41-2.86-1.99-6.32-2.75-9.75-2.14l-.7-3.92c4.48-.8 9 .19 12.73 2.79 3.73 2.6 6.22 6.5 7.02 10.97L755.76 598.6zM748.49 601.56c-1.56 2.24-4.65 2.79-6.89 1.23-2.24-1.56-2.79-4.65-1.23-6.89 1.56-2.24 4.65-2.79 6.89-1.23C749.5 596.24 750.05 599.32 748.49 601.56z"></path></g><g><path fill="#466eb6" d="M549.62,771.44H415.26c-22.37,0-40.51-18.14-40.51-40.51V442.2c0-22.37,18.14-40.51,40.51-40.51h134.37     c22.37,0,40.51,18.14,40.51,40.51v288.73C590.13,753.3,572,771.44,549.62,771.44z"></path><path fill="#86b1f2" d="M582.17,424.68v323.77c0,12.7-10.3,22.99-23,22.99h-169.4c-12.7,0-22.99-10.3-22.99-22.99V424.68     c0-6.95,3.09-13.18,7.97-17.4v0h0c4.03-3.48,9.28-5.59,15.02-5.59h169.4c5.74,0,10.99,2.11,15.02,5.59h0v0     C579.08,411.5,582.17,417.73,582.17,424.68z"></path><path fill="#efefef" d="M574.2,428.11v320.34c0,8.28-6.74,15.02-15.03,15.02h-169.4c-8.28,0-15.02-6.74-15.02-15.02V428.11H574.2z"></path><path fill="#466eb6" d="M489.62 417.7h-41.07c-1.62 0-2.95-1.33-2.95-2.95l0 0c0-1.62 1.33-2.95 2.95-2.95h41.07c1.62 0 2.95 1.33 2.95 2.95l0 0C492.57 416.37 491.24 417.7 489.62 417.7zM431.19 414.74c0 2.37-1.92 4.29-4.29 4.29-2.37 0-4.29-1.92-4.29-4.29 0-2.37 1.92-4.29 4.29-4.29C429.27 410.46 431.19 412.38 431.19 414.74z"></path><path fill="#355389" d="M397.26,468.87h8.82l10.17,29.43h1.75v3.7h-14.88v-3.7h2.82l-1.42-4.42h-11.24l-1.49,4.42h2.84v3.7h-9.58       v-3.7h2.13L397.26,468.87z M399.01,477.26l-4.21,12.26h8.28L399.01,477.26z"></path><rect width="117.67" height="3.94" x="446.23" y="468.96" fill="#355389"></rect><rect width="131.58" height="3.94" x="432.32" y="483.09" fill="#355389"></rect><rect width="131.58" height="3.94" x="432.32" y="497.22" fill="#355389"></rect><rect width="159.89" height="3.94" x="404" y="528.46" fill="#355389"></rect><rect width="178.8" height="3.94" x="385.1" y="542.59" fill="#355389"></rect><rect width="178.8" height="3.94" x="385.1" y="556.72" fill="#355389"></rect><rect width="159.89" height="3.94" x="404" y="582.55" fill="#355389"></rect><rect width="178.8" height="3.94" x="385.1" y="596.68" fill="#355389"></rect><rect width="178.8" height="3.94" x="385.1" y="610.82" fill="#355389"></rect><path fill="#355389" d="M508.53 673.62c0 2.39-1.94 4.33-4.33 4.33s-4.33-1.94-4.33-4.33c0-2.39 1.94-4.33 4.33-4.33S508.53 671.23 508.53 673.62zM435.59 700.38l24.5-24.5c1.62-1.62 4.25-1.62 5.87 0l12.06 12.06c1.62 1.62 4.25 1.62 5.87 0l5.63-5.63c1.62-1.62 4.25-1.62 5.87 0l18.01 18.01L435.59 700.38z"></path><path fill="#355389" d="M536.16,733.83H421.78c-2.2,0-3.98-1.78-3.98-3.98v-80.67c0-2.2,1.78-3.98,3.98-3.98h114.38       c2.2,0,3.98,1.78,3.98,3.98v80.67C540.14,732.04,538.36,733.83,536.16,733.83z M425.76,725.86h106.41v-72.71H425.76V725.86z"></path><path fill="#96d9c9" d="M547.5,455.49H401.78c-5.07,0-9.22-4.15-9.22-9.22l0,0c0-5.07,4.15-9.22,9.22-9.22H547.5     c5.07,0,9.22,4.15,9.22,9.22l0,0C556.72,451.34,552.57,455.49,547.5,455.49z"></path><path fill="#fff" d="M542.32,445.85c0.47-0.69,0.71-1.5,0.7-2.35v-0.06c-0.03-1.09-0.47-2.1-1.26-2.86       c-1.64-1.59-4.29-1.56-5.89,0.07c-0.78,0.79-1.2,1.84-1.18,2.95c0.02,1.11,0.46,2.14,1.26,2.91c1.43,1.39,3.61,1.54,5.21,0.49       l0.82,0.8l1.15-1.18L542.32,445.85z M536.81,445.64c-0.55-0.53-0.86-1.25-0.88-2.01c0-0.01,0-0.03,0-0.04       c-0.01-0.78,0.29-1.52,0.84-2.08c0.57-0.58,1.34-0.88,2.1-0.88c0.74,0,1.48,0.27,2.05,0.83c0.56,0.54,0.88,1.28,0.89,2.05       c0.01,0.78-0.28,1.51-0.83,2.07C539.83,446.74,537.96,446.76,536.81,445.64z"></path><polygon fill="#fff" points="548.6 451.49 546.99 453.12 541.44 447.74 543.05 446.11"></polygon><defs><path id="a" d="M574.2,428.11v320.34c0,8.28-6.74,15.02-15.03,15.02h-169.4c-8.28,0-15.02-6.74-15.02-15.02V428.11       H574.2z"></path></defs><clipPath id="b"><use overflow="visible" xlink:href="#a"></use></clipPath><g clip-path="url(#b)"><rect width="43.56" height="382.29" x="476.23" y="332.43" fill="#fff" transform="rotate(-45.001 498.007 523.583)"></rect><rect width="21.78" height="382.29" x="516.75" y="302.8" fill="#fff" transform="rotate(-45.001 527.646 493.952)"></rect><rect width="43.56" height="382.29" x="430.51" y="498.15" fill="#fff" transform="rotate(-45.001 452.281 689.305)"></rect><rect width="21.78" height="382.29" x="471.03" y="468.52" fill="#fff" transform="rotate(-45.001 481.91 659.668)"></rect></g><path fill="#fae0b2" d="M268.95,748.42c0,0,3.06,9.97-0.12,22.21l-10.64-0.89l-30.24-2.31v-0.01c0,0,0.92-4.83,0.92-10.49      c0-5.2-0.92-10.5-0.92-10.5l29.81,1.41L268.95,748.42z"></path><path fill="#f79c8d" d="M272.13,743.75c0,0,5.92,13.77,0,31.59l-45-2.97c-0.97-0.07-1.72-1.22-1.69-2.58      c0.04-1.34,0.84-2.4,1.78-2.4c0.03,0,0.05,0,0.08,0l0.64,0.05l30.24,2.31l10.64,0.89c3.18-12.24,0.12-22.21,0.12-22.21      l-11.2-0.57l-29.81-1.41l-0.73-0.04c-0.96-0.05-1.71-1.15-1.71-2.49c0-1.36,0.8-2.48,1.76-2.48c0.03,0,0.05,0,0.08,0      L272.13,743.75z"></path><polygon fill="#f47458" points="406.33 739.43 402.03 739.43 272.13 743.75 227.35 741.43 358.06 738.83"></polygon><path fill="#f47458" d="M406.33,739.43c0,0,6.26,18.47,0.7,32.18h-4.99l-129.9,3.73c5.92-17.82,0-31.59,0-31.59l129.9-4.31H406.33      z"></path><path fill="#e5bd83" d="M269.64 754.74c-4.69.22-9.35.07-14.01-.17-4.66-.28-9.31-.64-13.94-1.38 4.69-.22 9.35-.07 14.01.17C260.35 753.64 265 754.01 269.64 754.74zM245.73 762.22c-2.61.23-5.19.1-7.75-.13-2.56-.26-5.12-.61-7.64-1.33 2.61-.24 5.19-.1 7.75.13C240.66 761.15 243.21 761.5 245.73 762.22z"></path><path fill="#f8c558" d="M249.18 766.12c-1.93-3-1.57-9.82.66-12.6 3.93.21 7.87.41 11.8.62-2.24 2.78-2.6 9.6-.66 12.6-2.43-.93-4.78-2.12-6.96-3.45C252.27 764.41 250.68 765.39 249.18 766.12zM283.11 774.98c5.56-13.71-.68-31.6-.68-31.6h12.14c0 0 6.25 17.89.68 31.6H283.11zM385.13 772.2c5.56-13.71-.68-31.6-.68-31.6h12.14c0 0 6.25 17.89.68 31.6H385.13z"></path><g><path fill="#fae0b2" d="M353.33,716.56c0,0-4.29,9.97,0.16,22.21l16.9-0.93l42.4-2.31v-0.01c0,0-1.29-4.83-1.29-10.49      c0-5.2,1.29-10.5,1.29-10.5v-0.01L371,715.96L353.33,716.56z"></path><path fill="#50bfa5" d="M413.67,735.49l-0.89,0.05l-42.4,2.31l-16.9,0.93c-4.45-12.24-0.16-22.21-0.16-22.21l17.67-0.61      l41.79-1.42l1.01-0.03c1.34-0.05,2.4-1.15,2.4-2.49c0-1.36-1.12-2.48-2.47-2.48c-0.04,0-0.07,0-0.11,0l-62.77,2.32      c0,0-8.29,13.77,0,31.59l63.07-2.97c1.35-0.07,2.41-1.22,2.37-2.58c-0.05-1.34-1.17-2.4-2.5-2.4      C413.74,735.49,413.71,735.49,413.67,735.49z"></path><polygon fill="#3c8f7c" points="413.61 709.53 241.61 707.36 242.55 707.4 350.84 711.85"></polygon><path fill="#3c8f7c" d="M348.75,711.76l-106.19-4.37c-5.29-0.21-9.7,4.01-9.73,9.31l-0.07,13.23c-0.03,5.06,3.95,9.22,9.01,9.41      l109.09,4.08c-8.29-17.82,0-31.59,0-31.59L348.75,711.76z"></path><path fill="#e5bd83" d="M353.64 725.11c3.28.23 6.54.27 9.81.23 3.26-.02 6.52-.16 9.78-.32 3.25-.2 6.51-.42 9.75-.76 3.25-.33 6.49-.72 9.72-1.32-3.28-.23-6.55-.27-9.81-.23-3.26.02-6.52.16-9.78.32-3.25.2-6.51.42-9.75.76C360.12 724.12 356.87 724.51 353.64 725.11zM388.28 730.33c3.63.23 7.23.1 10.83-.12 3.59-.26 7.18-.61 10.75-1.34-3.63-.24-7.23-.1-10.83.12C395.43 729.26 391.84 729.61 388.28 730.33z"></path><path fill="#f47458" d="M382.46,744.62c3.31-4.88,2.97-16.46-0.61-21.13c-6.51,0.19-12.77,0.99-19.28,1.18     c3.59,4.68,3.68,15.64,0.37,20.52c4.05-1.45,7.98-3.32,11.63-5.42C377.43,741.68,380.01,743.36,382.46,744.62z"></path></g><g><path fill="#355389" d="M290.49,679.71l3.07,0.28c-7.65,0.55-13.4,7.18-12.86,14.83l0.3,4.24c0.46,6.38,5.17,11.45,11.17,12.62      l-49.41-3.97c-8.24-0.8-14.24-8.16-13.39-16.38l0.24-2.28c0.84-8.12,8.02-14.05,16.15-13.32l0.01,0L290.49,679.71z"></path><polygon fill="#355389" points="409.47 677.35 293.57 679.99 290.49 679.71 245.77 675.73 245.76 675.73 245.23 675.68"></polygon><path fill="#466eb6" d="M406.13,682.02l-112.32,2.94c-2.53,0.21-4.83,1.47-6.38,3.52c-1.34,1.79-1.9,4.05-1.73,6.3l0.29,3.91      c0.33,4.56,4.15,8.2,8.72,8.27c0.26,0,0.53-0.01,0.79-0.03l0.12-0.01l110.68-2.51l2.75-0.07c1.3-0.03,2.35,1.03,2.33,2.33      l-0.01,0.41c-0.02,1.23-1,2.22-2.23,2.25l-113.29,2.57c-1.26,0.09-2.49,0.01-3.67-0.23c-6-1.17-10.71-6.24-11.17-12.62      l-0.3-4.24c-0.55-7.65,5.21-14.28,12.86-14.83l115.9-2.64c1.3-0.03,2.35,1.02,2.33,2.33c-0.02,1.23-0.99,2.22-2.22,2.25      L406.13,682.02z"></path><path fill="#fae0b2" d="M406.29,704.42l-110.68,2.51l-0.12,0.01c-0.26,0.02-0.53,0.03-0.79,0.03c-4.56-0.07-8.39-3.71-8.72-8.27      l-0.29-3.91c-0.16-2.24,0.39-4.51,1.73-6.3c1.56-2.06,3.85-3.32,6.38-3.52l112.32-2.94c-0.04,0.2-1.46,6.88-1.53,11.17      C404.53,697.47,406.29,704.42,406.29,704.42z"></path><path fill="#e5bd83" d="M295.43 691.45c3.24-.54 6.49-.89 9.74-1.16 3.25-.29 6.51-.46 9.76-.61 3.26-.11 6.52-.2 9.78-.17 3.26.02 6.53.1 9.8.39-3.24.54-6.49.89-9.74 1.16-3.25.29-6.51.46-9.76.6-3.26.11-6.52.2-9.78.17C301.97 691.82 298.71 691.73 295.43 691.45zM322.22 700.56c3.24-.54 6.49-.89 9.74-1.16 3.25-.29 6.51-.46 9.76-.61 3.26-.11 6.52-.2 9.78-.17 3.26.02 6.53.1 9.8.39-3.24.54-6.49.89-9.74 1.16-3.25.29-6.51.46-9.76.6-3.26.11-6.52.2-9.78.17C328.76 700.93 325.5 700.84 322.22 700.56z"></path><path fill="#50bfa5" d="M326.64,717.47c4.5-6.03,4.79-20.94,0.48-27.1c-8.3-0.13-15.68,0.74-23.99,0.61     c4.31,6.17,3.09,20.07-1.41,26.09c5.25-1.61,10.36-3.77,15.14-6.24C320.39,713.43,323.58,715.72,326.64,717.47z"></path><path fill="#e5bd83" d="M350.92,694.73c4.46-0.54,8.93-0.88,13.4-1.16c4.47-0.29,8.94-0.46,13.41-0.61     c4.47-0.11,8.95-0.2,13.43-0.17c4.48,0.02,8.96,0.11,13.44,0.39c-4.46,0.54-8.93,0.89-13.4,1.16c-4.47,0.29-8.94,0.46-13.41,0.6     c-4.47,0.11-8.95,0.19-13.43,0.16C359.89,695.1,355.41,695.01,350.92,694.73z"></path></g><g><polygon fill="#fae0b2" points="285.15 433.85 283 451.04 267.43 448.65 267.31 448.21 266.76 446.06 266.18 443.83 266.17 443.8 264.07 435.7"></polygon><path fill="#fae0b2" d="M286.34,427.55c-0.35,9.8-6.51,18.86-16.31,18.51c-9.8-0.35-17.39-0.3-19.19-19.79      c-0.9-9.77,8.58-17.46,18.39-17.11C279.03,409.51,286.7,417.75,286.34,427.55z"></path><path fill="#13375b" d="M274.65,402.7c0,0-0.22-14.12-21.22-13.14c-19.35,0.9-20.28,44.95,14.5,28.55      c3.03-1.43,6.48-1.69,9.66-0.63c0.49,0.16,0.93,0.33,1.27,0.5c1.87,0.91,1.6,6.13,1.6,6.13s2.48-1.96,3.21,1.45      c0.72,3.41-2.47,3.93-2.47,3.93l2.1,8.88c0,0,3.33-5.41,5.61-14.85C291.11,414.35,283.6,399.9,274.65,402.7z"></path><path fill="#fe875e" d="M267.83,450.65l-1.08-4.58c0,0,11.3,0.92,15.36-5.94C282.12,440.12,282.04,449.46,267.83,450.65z"></path><path fill="#3c8f7c" d="M215.95,569.55l-11.45,53.92h29.54l15.13-50.81c0,0-9.36-9.25-18.88-13.29     C220.77,555.34,218.37,563.57,215.95,569.55z"></path><path fill="#355389" d="M213.36,501.03c1.96,0.75,4.04,1.4,6.27,1.91c1.1,0.26,2.28,0.47,3.47,0.65l1.86,0.19     c0.61,0.07,1.29,0.07,1.94,0.1c2.64,0.06,5.56-0.2,8.68-1.12c0.79-0.26,1.57-0.52,2.36-0.84c0.79-0.36,1.58-0.74,2.36-1.14     c0.77-0.45,1.53-0.94,2.28-1.45c0.74-0.52,1.43-1.12,2.13-1.72l0.49-0.44l0.31-0.3l0.61-0.6l1.22-1.2l0.61-0.61     c0.19-0.2,0.37-0.4,0.55-0.6l1.08-1.2l1.07-1.21l0.97-1.21l0.97-1.21c0.33-0.4,0.65-0.81,0.94-1.22l1.78-2.44     c0.58-0.81,1.11-1.63,1.66-2.45c0.56-0.82,1.08-1.64,1.59-2.46c0.5-0.82,1.04-1.65,1.51-2.48c0.67-1.12,2.02-3.86,3.51-6.98     c3.5-7.33-0.26-21.7-5.65-20.69c-6.42,1.2-16.43,2.06-19.57,8.68c-2.93,6.19-10.28,22-16.15,23.14     c-5.45,1.06-21.67,1.22-21.78,1.2l0.74,14C201.17,497.37,209.24,499.67,213.36,501.03z"></path><path fill="#466eb6" d="M307.39,507.24l1.24-22.08c1-17.72,0.06-36.25-28.41-36.24c-0.03-0.01-0.07-0.01-0.11-0.02       c-1.89-0.31-3.28-0.44-3.93-0.49c-0.28-0.02-0.42-0.03-0.42-0.03c-36.69,0-35.7,13.64-36.78,32.87l-1.16,20.7l-1.73,30.88       l69.66,3.9L307.39,507.24z"></path><path fill="#587cf8" d="M276.17,448.41c0.66,0.05,2.05,0.18,3.93,0.49C278.82,448.66,277.51,448.5,276.17,448.41z"></path><path fill="#50bfa5" d="M305.26,549.09L305.26,549.09c-2.78,16.04-14.15,29.95-35.32,27.51c-26.54-3.07-47.57-15.16-47.57-15.16     l-31.01,39.2l-23.57-16.7c0,0,10.14-15.41,20.04-37.37c9.91-21.97,18-27.81,48.8-23.6c19.53,2.67,42.08,7.49,55.96,10.65h0.01     c8.01,1.83,13.13,3.1,13.13,3.1C306.11,540.83,305.96,545.03,305.26,549.09z"></path><rect width=".5" height=".5" x="169.5" y="581.07" fill="#11442f" transform="rotate(-55.333 169.769 581.322)"></rect><path fill="#11442f" d="M192.25,597.18l-0.8-0.55l0.28-0.41l0.8,0.55L192.25,597.18z M190.64,596.08l-0.8-0.55l0.28-0.41       l0.8,0.55L190.64,596.08z M189.04,594.97l-0.8-0.55l0.28-0.41l0.8,0.55L189.04,594.97z M187.44,593.86l-0.8-0.55l0.28-0.41       l0.8,0.55L187.44,593.86z M185.84,592.75l-0.8-0.55l0.28-0.41l0.8,0.55L185.84,592.75z M184.23,591.64l-0.8-0.55l0.28-0.41       l0.8,0.55L184.23,591.64z M182.63,590.53l-0.8-0.55l0.28-0.41l0.8,0.55L182.63,590.53z M181.03,589.42l-0.8-0.55l0.28-0.41       l0.8,0.55L181.03,589.42z M179.43,588.31l-0.8-0.55l0.28-0.41l0.8,0.55L179.43,588.31z M177.82,587.21l-0.8-0.55l0.28-0.41       l0.8,0.55L177.82,587.21z M176.22,586.1l-0.8-0.55l0.28-0.41l0.8,0.55L176.22,586.1z M174.62,584.99l-0.8-0.55l0.28-0.41       l0.8,0.55L174.62,584.99z M173.01,583.88l-0.8-0.55l0.28-0.41l0.8,0.55L173.01,583.88z M171.41,582.77l-0.8-0.55l0.28-0.41       l0.8,0.55L171.41,582.77z"></path><rect width=".5" height=".5" x="193.15" y="597.43" fill="#11442f" transform="rotate(-55.368 193.383 597.68)"></rect><path fill="#f8a492" d="M193.28 635.6c0 0 4.12 2.03 2.72 6.32l-9.11-.04c.21-1.69 1.19-3.2 2.68-4.08C191.02 636.95 192.22 636.24 193.28 635.6zM234.01 629.89l-.03 6.43c-8.35-.15-7.4-7.55-7.4-7.55 3.34-.2 5.34-.47 5.7-.53.04 0 .06-.01.06-.01l.03 0C233.28 628.24 234.01 628.98 234.01 629.89z"></path><path fill="#f47458" d="M203.12,629.48c0.68-0.43,1.41-0.88,2.22-1.38c0,0,0.8,0.11,2.22,0.26c2.35,0.25,6.42,0.57,11.34,0.6      c0.41,0,0.82,0,1.22,0c2.53-0.01,4.71-0.09,6.5-0.19c0,0-0.95,7.41,7.4,7.55l-0.03,5.79L196,641.92      c1.41-4.29-2.72-6.32-2.72-6.32c2.22-1.33,3.87-2.37,6.11-3.78C200.46,631.15,201.66,630.39,203.12,629.48z"></path><path fill="#b75742" d="M233.98,642.1l0,0.21c-0.01,1.15-0.94,2.08-2.09,2.08l-43.42-0.21c-0.45,0-0.86-0.19-1.16-0.49      c-0.29-0.3-0.47-0.71-0.47-1.16c0-0.22,0.02-0.44,0.04-0.65l9.11,0.04L233.98,642.1z"></path><path fill="#fae0b2" d="M232.39,623.51l-0.02,4.72c0,0-0.02,0-0.06,0.01c-0.64,0.07-6.25,0.75-11.99,0.8      c-0.39,0.01-1.01-0.08-1.42-0.08c-4.92-0.02-8.98-0.35-11.34-0.6c-1.36-0.15-2.13-0.26-2.13-0.26l0.02-4.72l24.89,0.12      L232.39,623.51z"></path><path fill="#f8a492" d="M206.83 633.57c-.07 0-.13-.03-.18-.08l-3.71-3.84c-.1-.1-.09-.26.01-.35.1-.1.26-.09.35.01l3.71 3.84c.1.1.09.26-.01.35C206.96 633.55 206.9 633.57 206.83 633.57zM204.96 634.83c-.07 0-.13-.03-.18-.08l-3.72-3.84c-.1-.1-.09-.26.01-.35.1-.1.26-.09.35.01l3.72 3.84c.1.1.09.26-.01.35C205.09 634.81 205.03 634.83 204.96 634.83zM203.09 635.89c-.07 0-.13-.03-.18-.08l-3.7-3.82c-.01-.01-.03-.04-.03-.04-.08-.11-.06-.27.05-.35.11-.08.27-.06.35.05l.01.02 3.68 3.8c.1.1.09.26-.01.35C203.22 635.87 203.15 635.89 203.09 635.89zM151.57 587.57c0 0 2.22 4.02-1.38 6.74l-7.45-5.24c1.14-1.27 2.81-1.95 4.53-1.81C148.95 587.38 150.34 587.49 151.57 587.57zM188.29 606.17l-3.7 5.26c-6.77-4.89-1.76-10.43-1.76-10.43 2.86 1.75 4.65 2.67 4.97 2.82.04.02.05.03.05.03l.03.02C188.64 604.4 188.82 605.43 188.29 606.17z"></path><path fill="#f47458" d="M163.15,588.17c0.8,0.04,1.67,0.08,2.61,0.13c0,0,0.59,0.55,1.67,1.48c1.79,1.55,4.94,4.14,8.96,6.97      c0.34,0.24,0.67,0.47,1,0.69c2.08,1.44,3.91,2.62,5.44,3.56c0,0-5.01,5.53,1.76,10.43l-3.33,4.73l-31.07-21.86      c3.6-2.71,1.38-6.74,1.38-6.74c2.59,0.18,4.53,0.27,7.18,0.4C160.01,588.02,161.42,588.09,163.15,588.17z"></path><path fill="#b75742" d="M181.26,616.16l-0.12,0.17c-0.66,0.94-1.96,1.17-2.9,0.51l-35.51-24.98c-0.37-0.26-0.6-0.65-0.67-1.06      c-0.07-0.41,0.02-0.85,0.28-1.22c0.13-0.18,0.26-0.35,0.41-0.51l7.45,5.24L181.26,616.16z"></path><path fill="#fae0b2" d="M190.58 600l-2.71 3.86c0 0-.02-.01-.05-.03-.57-.31-5.68-3.14-10.42-6.38-.33-.22-.66-.45-1-.69-4.02-2.83-7.17-5.42-8.96-6.97-1.03-.9-1.59-1.43-1.59-1.43l2.71-3.86 20.36 14.32L190.58 600zM164 593.7c-.12 0-.23-.09-.25-.21l-.85-5.28c-.02-.14.07-.26.21-.29.13-.03.26.07.29.21l.85 5.27c.02.14-.07.26-.21.29C164.02 593.69 164.01 593.7 164 593.7zM161.74 593.66c-.12 0-.23-.09-.25-.21l-.85-5.28c-.02-.14.07-.26.21-.29.13-.02.26.07.29.21l.85 5.28c.02.14-.07.26-.21.29C161.77 593.66 161.76 593.66 161.74 593.66zM159.6 593.46c-.12 0-.23-.09-.25-.21l-.85-5.25c0-.01 0-.04 0-.06-.01-.14.1-.25.24-.26 0 0 .01 0 .01 0 .13 0 .24.11.25.24l0 .02.85 5.22c.02.14-.07.26-.21.29C159.63 593.46 159.61 593.46 159.6 593.46z"></path><path fill="#fe875e" d="M205.05,482.5L205.05,482.5c-0.66-1.14-2.14-1.54-3.28-0.88l-4.47,2.58c-1.14,0.66-1.54,2.14-0.88,3.28v0      c0.66,1.14,2.14,1.54,3.28,0.88l4.47-2.58C205.32,485.12,205.72,483.64,205.05,482.5z"></path><polygon fill="#466eb6" points="217.56 472.25 221.54 514.27 216.9 514.69 213.25 472.64 215.41 472.44"></polygon><polygon fill="#86b1f2" points="198.13 463.99 202.77 507.03 216.9 514.69 213.25 472.64"></polygon><polygon fill="#86b1f2" points="255.47 467.94 253.76 511.84 221.54 514.27 217.56 472.25"></polygon><path fill="#f7cc7f" d="M204.93,462.01c0,0,7.35,3.14,10.46,8.86l-10.46-5.68V462.01z"></path><path fill="#fae0b2" d="M199.79,464.94l2.53-0.96c0,0,7.95,1.39,13.07,6.89c0,0,5.34-3.28,18.81-4.7c13.47-1.42,17.25,0,17.25,0       l2.45,1.97l-34.43,4.22l-6.22,0.29L199.79,464.94z"></path><path fill="#e5bd83" d="M218.5 470.82c1.01-.5 2.08-.86 3.16-1.18 1.08-.32 2.18-.56 3.29-.77 1.11-.19 2.22-.35 3.34-.44.56-.05 1.12-.07 1.68-.11.56-.01 1.12-.02 1.68-.01l-3.33.46c-1.1.17-2.21.34-3.3.53-1.1.2-2.19.42-3.28.66-.54.12-1.09.25-1.63.4C219.57 470.5 219.03 470.65 218.5 470.82zM228.61 469.56c1.43-.49 2.91-.82 4.39-1.1 1.48-.28 2.98-.47 4.49-.61 1.5-.12 3.01-.21 4.52-.2.75-.01 1.51.03 2.26.04.75.04 1.5.09 2.25.16-1.51.04-3.01.06-4.51.13-1.5.06-3 .17-4.49.3-1.49.13-2.98.31-4.47.51-.74.1-1.49.22-2.23.35C230.08 469.26 229.34 469.4 228.61 469.56zM214.45 470.38l-3.53-2.04c-.59-.34-1.18-.67-1.77-1-.3-.16-.6-.33-.9-.48-.3-.17-.6-.31-.9-.48.64.23 1.27.5 1.89.79.62.3 1.22.62 1.81.96.59.34 1.17.7 1.74 1.07C213.35 469.57 213.91 469.96 214.45 470.38zM210.9 468.94l-1.71-.83c-.57-.28-1.14-.56-1.71-.83-.57-.28-1.14-.54-1.72-.8-.29-.13-.58-.26-.87-.38-.29-.13-.58-.25-.88-.37.61.18 1.21.4 1.79.64.59.24 1.17.51 1.74.77.57.28 1.14.56 1.7.86C209.8 468.3 210.36 468.61 210.9 468.94z"></path><g><path fill="#fae0b2" d="M241.94,509.03l2.9,0.37c3.79,0.48,7.28-2.22,7.77-6.01l0,0c0.48-3.79-2.22-7.28-6.01-7.77l-2.9-0.37       c-3.79-0.48-7.28,2.22-7.77,6.01v0C235.45,505.05,238.15,508.54,241.94,509.03z"></path><path fill="#fae0b2" d="M248.58,497.89L248.58,497.89c0.95-0.92,3.32,0.47,2.4-0.48l-5.95-6.62c-0.92-0.95-2.45-0.97-3.4-0.05l0,0       c-0.95,0.92-0.97,2.45-0.05,3.4l3.6,3.7C246.11,498.79,247.64,498.81,248.58,497.89z"></path><path fill="#fae0b2" d="M244.68,497.79L244.68,497.79c0.17-1.31-0.77-2.52-2.08-2.69l-5.12-0.65c-1.31-0.17-2.52,0.77-2.69,2.08       l0,0c-0.17,1.31,0.77,2.52,2.08,2.69l5.12,0.65C243.3,500.04,244.51,499.11,244.68,497.79z"></path><path fill="#fae0b2" d="M241.07,500.35L241.07,500.35c0.17-1.31-0.77-2.52-2.08-2.69l-5.12-0.65c-1.31-0.17-2.52,0.77-2.69,2.08       l0,0c-0.17,1.31,0.77,2.52,2.08,2.69l5.12,0.65C239.69,502.59,240.9,501.66,241.07,500.35z"></path><path fill="#fae0b2" d="M241.91,503.48L241.91,503.48c0.17-1.31-0.77-2.52-2.08-2.69l-5.12-0.65c-1.31-0.17-2.52,0.77-2.69,2.08       l0,0c-0.17,1.31,0.77,2.52,2.08,2.69l5.12,0.65C240.54,505.73,241.74,504.79,241.91,503.48z"></path><path fill="#fae0b2" d="M244.46,506.82L244.46,506.82c0.17-1.31-0.77-2.52-2.08-2.69l-5.12-0.65c-1.31-0.17-2.52,0.77-2.69,2.08       l0,0c-0.17,1.31,0.77,2.52,2.08,2.69l5.12,0.65C243.08,509.06,244.29,508.13,244.46,506.82z"></path><rect width=".5" height="7.82" x="238.39" y="493.91" fill="#fe875e" transform="rotate(-79.781 238.662 497.845)"></rect><rect width=".5" height="7.65" x="235.8" y="498.27" fill="#fe875e" transform="rotate(-79.781 236.065 502.116)"></rect><rect width=".5" height="6.58" x="237.87" y="502.3" fill="#fe875e" transform="rotate(-79.781 238.14 505.611)"></rect></g><path fill="#11442f" d="M305.26,549.09L305.26,549.09c-16.44,1.05-12.67-15.47-12.67-15.47h0.01c8.01,1.83,13.13,3.1,13.13,3.1     C306.11,540.83,305.96,545.03,305.26,549.09z"></path><path fill="#466eb6" d="M294.42,453.41c8.12,0.14,14.4,7.15,13.66,15.24c-0.31,3.45-0.63,6.48-0.87,7.77     c-0.16,0.94-0.37,1.9-0.56,2.85c-0.2,0.95-0.4,1.89-0.64,2.86c-0.23,0.96-0.45,1.91-0.71,2.87l-0.82,2.9     c-0.13,0.48-0.29,0.97-0.46,1.46l-0.49,1.47l-0.5,1.47l-0.58,1.51l-0.6,1.5c-0.1,0.25-0.19,0.5-0.31,0.75l-0.36,0.78l-0.73,1.55     l-0.37,0.77l-0.18,0.38l-0.31,0.58c-0.45,0.8-0.89,1.6-1.4,2.35c-0.53,0.73-1.07,1.46-1.64,2.15c-0.59,0.65-1.2,1.28-1.82,1.89     c-0.62,0.57-1.27,1.09-1.92,1.61c-2.61,1.95-5.25,3.2-7.75,4.07c-0.62,0.2-1.26,0.43-1.86,0.58l-1.81,0.46     c-1.17,0.24-2.35,0.46-3.48,0.6c-2.26,0.3-4.45,0.41-6.54,0.39c-4.21-0.02-8.16-0.53-11.99-1.23c-1.91-0.38-3.8-0.8-5.66-1.31     c-0.93-0.26-1.85-0.52-2.78-0.81l-1.39-0.46l-1.47-0.51l2.45-13.51c0.12-0.03,0.35-0.04,0.53-0.05l0.6-0.04l1.22-0.09     c0.82-0.05,1.64-0.12,2.46-0.19c1.64-0.15,3.27-0.29,4.87-0.51c3.19-0.38,6.3-0.93,9.09-1.66c1.41-0.35,2.71-0.79,3.88-1.25     c0.28-0.12,0.59-0.22,0.85-0.36c0.26-0.13,0.52-0.25,0.78-0.37l0.69-0.38c0.24-0.12,0.4-0.27,0.6-0.39     c0.73-0.52,1.11-2.27,1.11-2.27l0.25-0.9l0.13-0.45c0.04-0.16,0.07-0.34,0.11-0.5l0.21-1.01l0.23-1l0.19-1.08     c0.12-0.73,0.27-1.41,0.38-2.17c0.25-1.49,0.92-8.75,1.52-15.58C280.91,458.84,287.09,453.28,294.42,453.41L294.42,453.41z"></path><path fill="#355389" d="M294.42,453.41c8.12,0.14,14.4,7.15,13.66,15.24c-0.31,3.45-0.63,6.48-0.87,7.77     c-0.16,0.94-0.37,1.9-0.56,2.85c-0.2,0.95-0.4,1.89-0.64,2.86c-0.23,0.96-0.45,1.91-0.71,2.87l-0.82,2.9     c-0.13,0.48-0.29,0.97-0.46,1.46l-0.49,1.47l-0.5,1.47l-0.58,1.51l-0.6,1.5c-0.1,0.25-0.19,0.5-0.31,0.75l-0.36,0.78l-0.73,1.55     l-0.37,0.77l-0.18,0.38l-0.31,0.58c-0.45,0.8-0.89,1.6-1.4,2.35c-0.53,0.73-1.07,1.46-1.64,2.15c-0.59,0.65-1.2,1.28-1.82,1.89     c-0.62,0.57-1.27,1.09-1.92,1.61c-2.61,1.95-5.25,3.2-7.75,4.07c-0.62,0.2-1.26,0.43-1.86,0.58l-1.81,0.46     c-1.17,0.24-2.35,0.46-3.48,0.6c-2.26,0.3-4.45,0.41-6.54,0.39c-4.21-0.02-8.16-0.53-11.99-1.23c-1.91-0.38-3.8-0.8-5.66-1.31     c-0.93-0.26-1.85-0.52-2.78-0.81l-1.39-0.46l-1.47-0.51l2.45-13.51c0.12-0.03,0.35-0.04,0.53-0.05l0.6-0.04l1.22-0.09     c0.82-0.05,1.64-0.12,2.46-0.19c1.64-0.15,3.27-0.29,4.87-0.51c3.19-0.38,6.3-0.93,9.09-1.66c1.41-0.35,2.71-0.79,3.88-1.25     c0.28-0.12,0.59-0.22,0.85-0.36c0.26-0.13,0.52-0.25,0.78-0.37l0.69-0.38c0.24-0.12,0.4-0.27,0.6-0.39     c0.73-0.52,1.11-2.27,1.11-2.27l0.25-0.9l0.13-0.45c0.04-0.16,0.07-0.34,0.11-0.5l0.21-1.01l0.23-1l0.19-1.08     c0.12-0.73,0.27-1.41,0.38-2.17c0.25-1.49,0.92-8.75,1.52-15.58C280.91,458.84,287.09,453.28,294.42,453.41L294.42,453.41z"></path><g><path fill="#fae0b2" d="M205.81,485.95L205.81,485.95c-0.1-1.32-1.25-2.32-2.57-2.22l-5.14,0.38c-1.32,0.1-2.32,1.25-2.22,2.57l0,0      c0.1,1.32,1.25,2.32,2.57,2.22l5.14-0.38C204.9,488.43,205.9,487.27,205.81,485.95z"></path><path fill="#fae0b2" d="M207.82,489.95L207.82,489.95c-0.1-1.32-1.25-2.32-2.57-2.22l-6.62,0.49c-1.32,0.1-2.32,1.25-2.22,2.57l0,0      c0.1,1.32,1.25,2.32,2.57,2.22l6.62-0.49C206.91,492.42,207.91,491.27,207.82,489.95z"></path><path fill="#fae0b2" d="M206.81,493.73L206.81,493.73c-0.1-1.32-1.25-2.32-2.57-2.22l-5.14,0.38c-1.32,0.1-2.32,1.25-2.22,2.57l0,0      c0.1,1.32,1.25,2.32,2.57,2.22l5.14-0.38C205.91,496.21,206.9,495.05,206.81,493.73z"></path><path fill="#fae0b2" d="M205.98,497.4L205.98,497.4c-0.1-1.32-1.25-2.32-2.57-2.22l-2.28,0.17c-1.32,0.1-2.32,1.25-2.22,2.57l0,0      c0.1,1.32,1.25,2.32,2.57,2.22l2.28-0.17C205.09,499.87,206.08,498.72,205.98,497.4z"></path><rect width="7.98" height=".5" x="197.3" y="487.97" fill="#fe875e" transform="rotate(-7.082 201.315 488.278)"></rect><rect width="8.59" height=".5" x="197.68" y="492.48" fill="#fe875e" transform="rotate(-4.704 201.917 492.606)"></rect><rect width="6.05" height=".5" x="199.43" y="496.12" fill="#fe875e" transform="rotate(-5.846 202.478 496.365)"></rect></g><g><path fill="#11442f" d="M234.1,620.37h-1v-0.5h1V620.37z M232.11,620.37h-1v-0.5h1V620.37z M230.12,620.37h-1v-0.5h1V620.37z       M228.13,620.37h-1v-0.5h1V620.37z M226.13,620.37h-1v-0.5h1V620.37z M224.14,620.37h-1v-0.5h1V620.37z M222.15,620.37h-1v-0.5      h1V620.37z M220.16,620.37h-1v-0.5h1V620.37z M218.16,620.37h-1v-0.5h1V620.37z M216.17,620.37h-1v-0.5h1V620.37z       M214.18,620.37h-1v-0.5h1V620.37z M212.19,620.37h-1v-0.5h1V620.37z M210.19,620.37h-1v-0.5h1V620.37z M208.2,620.37h-1v-0.5h1      V620.37z M206.21,620.37h-1v-0.5h1V620.37z"></path></g><g><path fill="#11442f" d="M172.83,583.42l-0.43-0.25l0.49-0.87l0.43,0.24L172.83,583.42z M173.81,581.68l-0.43-0.24l0.49-0.87      l0.43,0.24L173.81,581.68z M174.78,579.94l-0.43-0.24l0.49-0.87l0.44,0.24L174.78,579.94z M175.76,578.19l-0.43-0.24l0.48-0.87      l0.43,0.24L175.76,578.19z M176.73,576.45l-0.44-0.24l0.48-0.87l0.44,0.24L176.73,576.45z M177.69,574.71l-0.44-0.24l0.48-0.87      l0.44,0.24L177.69,574.71z M178.66,572.96l-0.44-0.24l0.48-0.87l0.44,0.24L178.66,572.96z M179.62,571.21l-0.44-0.24l0.48-0.87      l0.44,0.24L179.62,571.21z M180.58,569.46l-0.44-0.24l0.48-0.87l0.44,0.24L180.58,569.46z M181.53,567.71l-0.44-0.24l0.48-0.88      l0.44,0.24L181.53,567.71z M182.49,565.96l-0.44-0.24l0.48-0.88l0.44,0.24L182.49,565.96z M183.44,564.21l-0.44-0.24l0.47-0.88      l0.44,0.24L183.44,564.21z M184.38,562.46l-0.44-0.24l0.47-0.88l0.44,0.24L184.38,562.46z M185.33,560.7l-0.44-0.24l0.47-0.88      l0.44,0.23L185.33,560.7z M186.27,558.94l-0.44-0.23l0.47-0.88l0.44,0.23L186.27,558.94z M187.2,557.18l-0.44-0.23l0.47-0.88      l0.44,0.23L187.2,557.18z M188.14,555.42l-0.44-0.23l0.46-0.88l0.44,0.23L188.14,555.42z M189.06,553.65l-0.44-0.23l0.46-0.88      l0.44,0.23L189.06,553.65z M189.98,551.88l-0.44-0.23l0.46-0.89l0.44,0.23L189.98,551.88z M190.9,550.11l-0.44-0.23l0.46-0.88      l0.44,0.23L190.9,550.11z M191.82,548.35l-0.44-0.23l0.47-0.88l0.44,0.23L191.82,548.35z M192.75,546.6l-0.44-0.24      c0.16-0.29,0.32-0.58,0.48-0.88l0.44,0.24C193.07,546.02,192.91,546.31,192.75,546.6z M193.71,544.86l-0.43-0.24      c0.16-0.29,0.33-0.58,0.49-0.87l0.43,0.25C194.04,544.28,193.88,544.57,193.71,544.86z M194.7,543.13l-0.43-0.25      c0.17-0.29,0.34-0.57,0.51-0.86l0.43,0.26C195.04,542.56,194.87,542.85,194.7,543.13z M195.74,541.43l-0.42-0.26      c0.18-0.28,0.36-0.56,0.54-0.84l0.42,0.27C196.09,540.87,195.91,541.15,195.74,541.43z M196.81,539.76l-0.41-0.28      c0.19-0.28,0.37-0.55,0.56-0.83l0.41,0.28C197.19,539.21,197,539.49,196.81,539.76z M197.95,538.13l-0.4-0.29      c0.2-0.27,0.4-0.54,0.6-0.81l0.4,0.3C198.34,537.6,198.14,537.86,197.95,538.13z M292.16,536.97l-0.4-0.09l0.11-0.49l0.4,0.09      L292.16,536.97z M290.78,536.66l-0.98-0.21l0.11-0.49l0.98,0.21L290.78,536.66z M199.15,536.55l-0.39-0.31      c0.21-0.26,0.42-0.52,0.63-0.78l0.38,0.32C199.56,536.03,199.35,536.29,199.15,536.55z M288.83,536.24l-0.98-0.21l0.11-0.49      l0.98,0.21L288.83,536.24z M286.88,535.82l-0.98-0.21l0.1-0.49l0.98,0.21L286.88,535.82z M284.93,535.4l-0.98-0.21l0.1-0.49      l0.98,0.21L284.93,535.4z M200.41,535.02l-0.38-0.33c0.22-0.25,0.44-0.5,0.67-0.75l0.37,0.34      C200.85,534.53,200.63,534.77,200.41,535.02z M282.98,534.99l-0.98-0.21l0.1-0.49l0.98,0.21L282.98,534.99z M281.02,534.58      l-0.98-0.2l0.1-0.49l0.98,0.2L281.02,534.58z M279.07,534.17l-0.98-0.2l0.1-0.49l0.98,0.2L279.07,534.17z M277.12,533.77      l-0.98-0.2l0.1-0.49l0.98,0.2L277.12,533.77z M201.76,533.57l-0.36-0.35c0.23-0.24,0.47-0.48,0.71-0.71l0.35,0.36      C202.22,533.1,201.98,533.33,201.76,533.57z M275.17,533.37l-0.98-0.2l0.1-0.49l0.98,0.2L275.17,533.37z M273.21,532.97      l-0.98-0.2l0.1-0.49l0.98,0.2L273.21,532.97z M271.26,532.58l-0.98-0.19l0.1-0.49l0.98,0.19L271.26,532.58z M203.18,532.19      l-0.33-0.37c0.25-0.22,0.5-0.45,0.75-0.66l0.32,0.38C203.67,531.76,203.42,531.97,203.18,532.19z M269.3,532.19l-0.98-0.19      l0.1-0.49l0.98,0.19L269.3,532.19z M267.35,531.81l-0.98-0.19l0.1-0.49l0.98,0.19L267.35,531.81z M265.39,531.43l-0.98-0.19      l0.09-0.49l0.98,0.19L265.39,531.43z M263.43,531.05l-0.98-0.19l0.09-0.49l0.98,0.19L263.43,531.05z M204.68,530.92l-0.31-0.39      c0.26-0.21,0.53-0.41,0.8-0.61l0.3,0.4C205.19,530.51,204.93,530.71,204.68,530.92z M261.47,530.68l-0.98-0.18l0.09-0.49      l0.98,0.18L261.47,530.68z M259.52,530.31l-0.98-0.18l0.09-0.49l0.98,0.18L259.52,530.31z M257.55,529.95l-0.98-0.18l0.09-0.49      l0.98,0.18L257.55,529.95z M206.26,529.74l-0.28-0.41c0.28-0.19,0.56-0.37,0.84-0.55l0.27,0.42      C206.81,529.38,206.53,529.56,206.26,529.74z M255.6,529.59l-0.98-0.18l0.09-0.49l0.98,0.18L255.6,529.59z M253.63,529.24      l-0.99-0.18l0.09-0.49l0.99,0.18L253.63,529.24z M251.67,528.89l-0.98-0.17l0.09-0.49l0.98,0.17L251.67,528.89z M207.93,528.69      l-0.25-0.43c0.29-0.17,0.58-0.33,0.88-0.49l0.23,0.44C208.5,528.36,208.21,528.53,207.93,528.69z M249.7,528.54l-0.98-0.17      l0.08-0.49l0.98,0.17L249.7,528.54z M247.74,528.21l-0.98-0.16l0.08-0.49l0.98,0.16L247.74,528.21z M245.78,527.88l-0.98-0.16      l0.08-0.49l0.98,0.16L245.78,527.88z M209.67,527.76l-0.22-0.45c0.3-0.15,0.6-0.28,0.91-0.42l0.2,0.46      C210.26,527.48,209.96,527.62,209.67,527.76z M243.81,527.56l-0.98-0.16l0.08-0.49l0.99,0.16L243.81,527.56z M241.84,527.25      l-0.98-0.15l0.08-0.49l0.99,0.15L241.84,527.25z M211.47,526.97l-0.18-0.46c0.31-0.12,0.62-0.24,0.94-0.35l0.16,0.47      C212.08,526.74,211.78,526.85,211.47,526.97z M239.87,526.94l-0.99-0.15l0.07-0.49l0.99,0.15L239.87,526.94z M237.9,526.65      l-0.99-0.14l0.07-0.49l0.99,0.14L237.9,526.65z M235.93,526.37l-0.99-0.14l0.07-0.49l0.99,0.14L235.93,526.37z M213.33,526.32      l-0.15-0.48c0.32-0.1,0.64-0.19,0.96-0.28l0.13,0.48C213.96,526.13,213.64,526.23,213.33,526.32z M233.96,526.1l-0.99-0.13      l0.06-0.49l0.99,0.13L233.96,526.1z M231.98,525.84l-0.99-0.12l0.06-0.49l0.99,0.12L231.98,525.84z M215.24,525.81l-0.11-0.49      c0.32-0.07,0.65-0.14,0.98-0.21l0.1,0.49C215.88,525.67,215.55,525.73,215.24,525.81z M230.01,525.6l-0.99-0.11l0.06-0.5      l0.99,0.11L230.01,525.6z M217.17,525.43l-0.08-0.49c0.33-0.05,0.66-0.1,0.99-0.14l0.06,0.49      C217.82,525.33,217.49,525.38,217.17,525.43z M228.03,525.38c-0.33-0.04-0.66-0.07-0.99-0.1l0.05-0.5      c0.33,0.03,0.66,0.07,0.99,0.1L228.03,525.38z M226.05,525.18c-0.33-0.03-0.66-0.05-0.99-0.07l0.03-0.5      c0.33,0.02,0.66,0.05,1,0.08L226.05,525.18z M219.13,525.18l-0.05-0.5c0.33-0.03,0.66-0.06,1-0.08l0.03,0.5      C219.78,525.12,219.46,525.15,219.13,525.18z M224.07,525.05c-0.33-0.01-0.66-0.02-0.99-0.03l0.01-0.5c0.33,0,0.66,0.01,1,0.03      L224.07,525.05z M221.1,525.05l-0.02-0.5c0.33-0.01,0.66-0.02,1-0.02l0,0.5C221.76,525.02,221.43,525.03,221.1,525.05z"></path></g><g><path fill="#fae0b2" d="M249.28,582.23h145.48c0,0-2.54,10.53-2.54,21.97c0,11.12,2.54,21.98,2.54,21.98H249.28       c-5.16,0-9.34-4.18-9.34-9.34v-25.25C239.94,586.42,244.12,582.23,249.28,582.23z"></path><path fill="#184655" d="M396.72,576.26c1.65,0,2.99,1.34,2.99,2.99c0,0.83-0.33,1.57-0.88,2.11c-0.54,0.55-1.29,0.88-2.11,0.88       h-1.96H249.28c-5.16,0-9.34,4.18-9.34,9.35v25.25c0,5.16,4.18,9.34,9.34,9.34h145.48h1.96c1.65,0,2.99,1.33,2.99,2.99       c0,0.83-0.33,1.56-0.88,2.11c-0.54,0.54-1.29,0.88-2.11,0.88H249.28c-8.47,0-15.32-6.86-15.32-15.32v-25.26       c0-8.46,6.85-15.32,15.32-15.32H396.72z"></path><path fill="#e5bd83" d="M258.88 590.74c8.61-.39 17.23-.64 25.84-.77 8.61-.16 17.23-.2 25.84-.22 8.61.02 17.23.06 25.84.22 8.61.13 17.23.39 25.84.78-8.61.39-17.23.65-25.84.78-8.61.16-17.23.2-25.84.22-8.61-.02-17.23-.06-25.84-.22C276.11 591.38 267.49 591.13 258.88 590.74zM253.49 604.21c3.26-.41 6.51-.63 9.77-.77 3.25-.16 6.51-.2 9.77-.22 3.25.02 6.51.06 9.77.22 3.26.15 6.51.36 9.77.78-3.25.41-6.51.63-9.77.78-3.26.16-6.51.2-9.77.22-3.26-.02-6.51-.06-9.77-.22C260 604.84 256.75 604.62 253.49 604.21zM278.41 618.02c3.26-.41 6.51-.63 9.77-.77 3.26-.16 6.51-.2 9.77-.22 3.25.02 6.51.06 9.77.22 3.26.15 6.51.36 9.77.78-3.25.41-6.51.63-9.77.78-3.26.16-6.51.2-9.77.22-3.25-.02-6.51-.06-9.77-.22C284.92 618.64 281.66 618.43 278.41 618.02zM298.96 609.93c7.52-.39 15.04-.64 22.57-.77 7.52-.16 15.04-.2 22.57-.22 7.52.02 15.04.06 22.57.22 7.52.13 15.04.39 22.57.78-7.52.39-15.04.65-22.57.78-7.52.16-15.04.2-22.57.22-7.52-.02-15.04-.06-22.57-.22C314 610.58 306.48 610.32 298.96 609.93z"></path><path fill="#50bfa5" d="M283.8,630.81c-4.41-8.32-4.41-18.28,0-26.6c-8.31,0-16.61,0-24.92,0c-4.41,8.32-4.41,18.28,0,26.6      c2.95-2.26,6.23-4.65,9.84-7.09C273.42,626.16,278.44,628.55,283.8,630.81z"></path></g><g><rect width="9.26" height="43.96" x="362.15" y="632.19" fill="#fe875e"></rect><rect width="15.42" height="43.96" x="371.41" y="632.19" fill="#f7cc7f"></rect><rect width="107.01" height="43.96" x="255.14" y="632.19" fill="#f7cc7f"></rect><rect width="9.26" height="43.96" x="245.88" y="632.19" fill="#fe875e"></rect><rect width="15.42" height="43.96" x="230.46" y="632.19" fill="#f7cc7f"></rect><path fill="#355389" d="M230.36,644.8c0,0-11.83,5.71-13.74,21.13l5.07-4.23l1.8,4.23c0,0,1.16-13.1,6.87-18.17V644.8z"></path><ellipse cx="308.92" cy="654.17" fill="#fe875e" rx="41.98" ry="9.93"></ellipse></g></g><g><path fill="#fae0b2" d="M611.95,659.22c2.93,1.42,7.21,2.31,11.97,2.31c4.97,0,9.41-0.97,12.34-2.49l-0.4-5.94l-0.03-0.5      c-0.01-0.01-0.02-0.01-0.02-0.01h0.02c0,0-0.29-0.11-0.65-0.35c-0.59-0.41-1.36-1.19-1.29-2.5c0.03-0.63,0.62-2.43,0.62-2.43      l0.66-2.53l0.01-0.03l2.38-9.18l-23.89-2.09c0,0,2.04,10.98,1.72,15.05c-0.21,2.7-2.9,4-2.96,4.04h-0.01L611.95,659.22z"></path><path fill="#fe875e" d="M617.1,640.58c0,0,1.81,9.64,15.17,12c0.85,0.15,2.49,0.39,3.59,0.51l-0.03-0.5      c-0.01-0.01-0.02-0.01-0.02-0.01h0.02c0,0-0.29-0.11-0.65-0.35c-0.59-0.41-1.36-1.19-1.29-2.5c0.03-0.63,0.67-2.62,0.67-2.62      S621.69,648.35,617.1,640.58z"></path><path fill="#fae0b2" d="M609.08,626c0.4,11.11,7.38,21.37,18.48,20.98c11.11-0.4,20.88-0.01,21.74-22.42      c0.59-15.56-9.73-19.79-20.83-19.39C617.36,605.56,608.68,614.89,609.08,626z"></path><path fill="#13375b" d="M645.6,614.17c-0.88,0.65-2.23,1.18-4.3,1.4c-7.23,0.76-19.52-1.94-19.52-1.94s1.29,3.91,0.85,10.97      c0,0-2.33-4.48-5.64-0.19c-2.97,3.85,1.26,8.41,3.8,7.42c0,0-0.32,9.9,7.36,10.19c4.44,0.17,7.33-4.71,9.92-5.61      c8.48-2.95,9.76-1.18,9.76-1.18c-4.52,16.33-25.59,11.37-25.59,11.37s-2.35,2.36-7.4,1.85c-5.04-0.52-6.05-11.39-6.05-11.39      c-3.41,1.22-7.28-5.49-7.87-15.71c-0.59-10.22,8.88-10.53,8.88-10.53s-1.13-7.16,9.96-11.16c10.8-3.9,14.64,0.3,14.84,0.52      c-0.1-0.33-2.19-7.32,3.48-7.42c5.8-0.11,4.33,3.34,4.33,3.34c6.47-5.86,15.72,2.13,14.06,8.83c-1.66,6.71-9.36,6.01-9.36,6.01      S647.79,612.57,645.6,614.17L645.6,614.17z"></path><path fill="#13375b" d="M622.56,618.18c0,0,0.29,6.97-0.07,11.37c-0.36,4.4-0.66,8.88,2.17,11.04c0,0-5.41-1.59-3.94-9.4      s1.04-8.34,0.11-10.85S622.56,618.18,622.56,618.18z"></path><path fill="#466eb6" d="M627.25,649.43L627.25,649.43c-22.55-0.91-37.11,8.89-37.11,58.39c0,7.54,2.95,25.38,4.77,34.53     c0.62,3.12,5.47,5.13,8.65,5.13h25.49c4.16,0,8.1-0.93,11.63-2.59c11.95-5.63,14.97-18.73,10.5-31.16     c-1.79-4.99-2.52-12.16-2.48-15.28C648.73,695.62,654.87,646.4,627.25,649.43z"></path><path fill="#e8fde6" d="M787.94 724.72c0 0 2.52 4.56 7.29 2.74l-.53-10.31c-1.9.32-3.56 1.52-4.47 3.25C789.35 722.1 788.61 723.49 787.94 724.72zM783.61 771.16l7.28-.37c-.6-9.45-8.94-7.98-8.94-7.98-.05 3.79-.25 6.07-.29 6.47 0 .05-.01.07-.01.07l0 .04C781.71 770.42 782.58 771.21 783.61 771.16z"></path><path fill="#a1cd96" d="M781.53,736.18c-0.45,0.79-0.93,1.65-1.45,2.58c0,0,0.17,0.9,0.42,2.49c0.4,2.65,0.99,7.24,1.27,12.8      c0.02,0.47,0.05,0.93,0.06,1.38c0.12,2.86,0.15,5.33,0.12,7.37c0,0,8.33-1.47,8.94,7.98l6.55-0.34l-2.21-42.98      c-4.78,1.82-7.29-2.74-7.29-2.74c-1.39,2.59-2.48,4.51-3.95,7.12C783.28,733.08,782.49,734.48,781.53,736.18z"></path><path fill="#17511a" d="M797.44,770.45l0.24-0.01c1.3-0.07,2.31-1.18,2.24-2.48l-2.52-49.13c-0.03-0.51-0.26-0.96-0.61-1.29      c-0.36-0.32-0.83-0.5-1.34-0.47c-0.25,0.01-0.49,0.04-0.74,0.08l0.53,10.31L797.44,770.45z"></path><path fill="#fae0b2" d="M776.31,769.62l5.34-0.27c0,0,0-0.02,0.01-0.07c0.04-0.73,0.41-7.34,0.17-13.84      c-0.01-0.45-0.04-0.91-0.06-1.38c-0.29-5.56-0.87-10.15-1.27-12.8c-0.24-1.54-0.41-2.39-0.41-2.39l-5.34,0.27l1.45,28.16      L776.31,769.62z"></path><rect width=".56" height="6.05" x="783.52" y="735.16" fill="#e8fde6" transform="rotate(-48.657 783.777 738.154)"></rect><rect width=".56" height="6.06" x="784.85" y="732.97" fill="#e8fde6" transform="rotate(-48.624 785.116 735.98)"></rect><polygon fill="#e8fde6" points="788.32 736.04 783.8 732.06 784.12 731.59 784.14 731.61 788.69 735.62"></polygon><path fill="#b75742" d="M776.41,771.53l-1.78-34.67l-107.69-7.24l-39.03-2.63c-9.34-0.63-17.13,7.04-16.65,16.39l0.63,12.26       c0.55,10.77,9.56,19.15,20.34,18.92L776.41,771.53z"></path><path fill="#f47458" d="M759.88,737.54l-18.45,27.04l-48.4-29.41c0,0-17.57,21.14-44.54,34.86c-20.93,10.65-38.13,1.2-47.59-13.99     c-2.73-4.38-4.82-9.24-6.16-14.23c0,0,3.95-2.7,10.35-6.92c13.17-8.68,36.72-23.77,57.62-34.96     c31.06-16.62,41.95-13.6,61.14,5.83C743.03,725.19,759.88,737.54,759.88,737.54z"></path><path fill="#b75742" d="M600.9 756.04c-2.73-4.38-4.82-9.24-6.16-14.23 0 0 3.95-2.7 10.35-6.92C605.09 734.89 614.54 744.19 600.9 756.04zM738.72 762.65l-.41-.28.55-.83.41.28L738.72 762.65zM739.83 761l-.41-.28.55-.83.41.28L739.83 761zM740.94 759.34l-.41-.28.55-.83.41.28L740.94 759.34zM742.05 757.69l-.41-.28.55-.83.41.28L742.05 757.69zM743.16 756.03l-.41-.28.55-.83.41.28L743.16 756.03zM744.27 754.38l-.41-.28.55-.83.41.28L744.27 754.38zM745.38 752.72l-.41-.28.55-.83.41.28L745.38 752.72zM746.49 751.07l-.41-.28.55-.83.41.28L746.49 751.07zM747.6 749.41l-.41-.28.55-.83.41.28L747.6 749.41zM748.7 747.76l-.41-.28.55-.83.41.28L748.7 747.76zM749.81 746.1l-.41-.28.55-.83.41.28L749.81 746.1zM750.92 744.45l-.41-.28.55-.83.41.28L750.92 744.45zM752.03 742.79l-.41-.28.55-.83.41.28L752.03 742.79zM753.14 741.14l-.41-.28.55-.83.41.28L753.14 741.14zM754.25 739.48l-.41-.28.55-.83.41.28L754.25 739.48zM755.36 737.83l-.41-.28.55-.83.41.28L755.36 737.83zM756.47 736.17l-.41-.28.55-.83.41.28L756.47 736.17z"></path><path fill="#b75742" d="M756.65,741.58l-0.76-0.67l0.33-0.37l0.76,0.67L756.65,741.58z M755.14,740.25l-0.75-0.66l0.33-0.37      l0.75,0.66L755.14,740.25z M753.64,738.93l-0.75-0.66l0.33-0.37l0.75,0.66L753.64,738.93z M607.38,738.39l-0.14-0.2h-0.25      c0-0.13,0-0.13,0.44-0.42l0.27,0.42C607.51,738.31,607.4,738.38,607.38,738.39z M608.54,737.63l-0.27-0.42l0.84-0.55l0.27,0.42      L608.54,737.63z M752.14,737.61l-0.75-0.66l0.33-0.37l0.75,0.66L752.14,737.61z M610.22,736.53l-0.27-0.42l0.84-0.54l0.27,0.42      L610.22,736.53z M750.64,736.29l-0.75-0.66l0.33-0.37l0.75,0.66L750.64,736.29z M611.89,735.45l-0.27-0.42l0.84-0.54l0.27,0.42      L611.89,735.45z M749.14,734.98l-0.75-0.66l0.33-0.37l0.75,0.66L749.14,734.98z M613.57,734.37l-0.27-0.42l0.84-0.54l0.27,0.42      L613.57,734.37z M747.63,733.66l-0.75-0.66l0.33-0.37l0.75,0.66L747.63,733.66z M615.25,733.29l-0.27-0.42l0.84-0.54l0.27,0.42      L615.25,733.29z M746.13,732.35l-0.75-0.66l0.33-0.37l0.75,0.66L746.13,732.35z M616.93,732.21l-0.27-0.42l0.84-0.54l0.27,0.42      L616.93,732.21z M618.61,731.14l-0.27-0.42l0.83-0.53l0.28,0.41L618.61,731.14z M744.63,731.03l-0.75-0.66l0.33-0.37l0.75,0.66      L744.63,731.03z M620.3,730.07l-0.27-0.42l0.84-0.53l0.27,0.42L620.3,730.07z M743.13,729.72l-0.75-0.66l0.33-0.37l0.75,0.66      L743.13,729.72z M621.98,729.01l-0.27-0.42l0.84-0.53l0.26,0.42L621.98,729.01z M741.63,728.41l-0.75-0.66l0.33-0.38l0.75,0.66      L741.63,728.41z M623.67,727.95l-0.26-0.42l0.85-0.53l0.26,0.42L623.67,727.95z M740.13,727.1l-0.75-0.66l0.33-0.37l0.75,0.66      L740.13,727.1z M625.36,726.89l-0.26-0.42l0.85-0.53l0.26,0.42L625.36,726.89z M627.05,725.84l-0.26-0.42l0.85-0.53l0.26,0.42      L627.05,725.84z M738.62,725.78l-0.75-0.66l0.33-0.38l0.75,0.66L738.62,725.78z M628.75,724.79l-0.26-0.42l0.85-0.52l0.26,0.42      L628.75,724.79z M737.12,724.47l-0.75-0.65l0.33-0.38l0.75,0.65L737.12,724.47z M630.44,723.75l-0.26-0.42l0.85-0.52l0.26,0.42      L630.44,723.75z M735.62,723.17l-0.75-0.65l0.33-0.38l0.75,0.66L735.62,723.17z M632.14,722.7l-0.26-0.42l0.85-0.52l0.26,0.43      L632.14,722.7z M734.12,721.86l-0.75-0.65l0.33-0.38l0.75,0.65L734.12,721.86z M633.85,721.67l-0.26-0.43l0.85-0.52l0.26,0.43      L633.85,721.67z M635.55,720.63l-0.26-0.43l0.85-0.52l0.26,0.43L635.55,720.63z M732.61,720.55l-0.75-0.65l0.33-0.38l0.75,0.65      L732.61,720.55z M637.26,719.61l-0.26-0.43l0.86-0.51l0.26,0.43L637.26,719.61z M731.1,719.24l-0.75-0.65l0.33-0.38l0.75,0.65      L731.1,719.24z M638.97,718.58l-0.25-0.43l0.86-0.51l0.25,0.43L638.97,718.58z M729.6,717.93l-0.75-0.65l0.33-0.38l0.75,0.65      L729.6,717.93z M640.68,717.56l-0.25-0.43l0.86-0.51l0.25,0.43L640.68,717.56z M728.09,716.63l-0.75-0.65l0.33-0.38l0.75,0.65      L728.09,716.63z M642.39,716.55l-0.25-0.43l0.86-0.51l0.25,0.43L642.39,716.55z M644.11,715.54l-0.25-0.43l0.86-0.5l0.25,0.43      L644.11,715.54z M726.58,715.32l-0.75-0.65l0.33-0.38l0.76,0.65L726.58,715.32z M645.83,714.53l-0.25-0.43l0.87-0.5l0.25,0.43      L645.83,714.53z M725.07,714.02l-0.76-0.65l0.33-0.38l0.76,0.65L725.07,714.02z M647.56,713.53l-0.25-0.43l0.87-0.5l0.25,0.43      L647.56,713.53z M723.56,712.72l-0.76-0.65l0.32-0.38l0.76,0.65L723.56,712.72z M649.29,712.54l-0.25-0.43l0.87-0.49l0.25,0.43      L649.29,712.54z M651.02,711.56l-0.25-0.43l0.86-0.49l0.24,0.43L651.02,711.56z M722.05,711.42l-0.76-0.65l0.32-0.38l0.76,0.65      L722.05,711.42z M652.75,710.58l-0.24-0.43l0.87-0.49l0.24,0.44L652.75,710.58z M720.53,710.12l-0.76-0.65l0.32-0.38l0.76,0.65      L720.53,710.12z M654.49,709.61l-0.24-0.44l0.87-0.48l0.24,0.44L654.49,709.61z M719.02,708.82l-0.76-0.65l0.32-0.38l0.76,0.65      L719.02,708.82z M656.24,708.65l-0.24-0.44l0.88-0.48l0.24,0.44L656.24,708.65z M657.99,707.7l-0.24-0.44l0.88-0.47l0.24,0.44      L657.99,707.7z M717.5,707.53l-0.76-0.64l0.32-0.38l0.76,0.65L717.5,707.53z M659.74,706.75l-0.23-0.44      c0.29-0.16,0.59-0.31,0.88-0.47l0.23,0.44C660.33,706.44,660.04,706.59,659.74,706.75z M715.97,706.24l-0.76-0.64l0.32-0.38      l0.77,0.64L715.97,706.24z M661.5,705.82l-0.23-0.44c0.3-0.16,0.59-0.31,0.88-0.46l0.23,0.44      C662.09,705.51,661.8,705.66,661.5,705.82z M714.44,704.96c-0.27-0.22-0.53-0.44-0.77-0.64l0.32-0.38      c0.24,0.2,0.5,0.41,0.77,0.64L714.44,704.96z M663.27,704.9l-0.23-0.44l0.89-0.46l0.23,0.44L663.27,704.9z M665.04,703.99      l-0.23-0.44c0.3-0.15,0.6-0.3,0.89-0.45l0.22,0.44C665.64,703.69,665.34,703.84,665.04,703.99z M712.9,703.7      c-0.18-0.15-0.36-0.29-0.52-0.42c-0.09-0.07-0.17-0.14-0.26-0.21l0.32-0.39l0.25,0.2c0.16,0.13,0.34,0.27,0.52,0.42L712.9,703.7      z M666.82,703.1l-0.22-0.45c0.3-0.15,0.6-0.3,0.9-0.44l0.22,0.45C667.42,702.8,667.12,702.95,666.82,703.1z M711.35,702.44      c-0.26-0.21-0.51-0.43-0.77-0.64l0.32-0.38c0.25,0.21,0.51,0.43,0.76,0.64L711.35,702.44z M668.61,702.22l-0.22-0.45      c0.3-0.15,0.6-0.29,0.9-0.43l0.21,0.45C669.21,701.93,668.91,702.08,668.61,702.22z M670.41,701.37l-0.21-0.45      c0.3-0.14,0.61-0.28,0.91-0.42l0.21,0.45C671.01,701.08,670.71,701.22,670.41,701.37z M709.83,701.15l-0.76-0.64l0.32-0.38      l0.76,0.64L709.83,701.15z M672.22,700.53l-0.21-0.45c0.31-0.14,0.61-0.28,0.91-0.41l0.2,0.46      C672.82,700.26,672.52,700.39,672.22,700.53z M708.3,699.87c-0.26-0.21-0.51-0.42-0.77-0.63l0.31-0.39      c0.26,0.21,0.52,0.42,0.78,0.63L708.3,699.87z M674.04,699.73l-0.2-0.46c0.31-0.13,0.62-0.27,0.92-0.39l0.19,0.46      C674.65,699.46,674.34,699.59,674.04,699.73z M675.87,698.95l-0.19-0.46c0.22-0.09,0.44-0.18,0.65-0.26l0.28-0.11l0.18,0.46      l-0.27,0.11C676.3,698.77,676.09,698.86,675.87,698.95z M706.76,698.63c-0.26-0.2-0.53-0.4-0.79-0.59l0.29-0.4      c0.27,0.2,0.54,0.4,0.81,0.6L706.76,698.63z M677.72,698.21l-0.18-0.46c0.31-0.12,0.63-0.24,0.93-0.36l0.18,0.47      C678.34,697.98,678.03,698.09,677.72,698.21z M679.58,697.52l-0.17-0.47c0.32-0.12,0.63-0.23,0.94-0.34l0.16,0.47      C680.2,697.29,679.89,697.4,679.58,697.52z M705.15,697.48c-0.27-0.18-0.55-0.36-0.83-0.53l0.26-0.43      c0.29,0.17,0.57,0.36,0.85,0.54L705.15,697.48z M681.45,696.86l-0.16-0.47c0.32-0.11,0.64-0.21,0.95-0.31l0.15,0.47      C682.08,696.65,681.77,696.75,681.45,696.86z M703.47,696.46c-0.29-0.16-0.58-0.31-0.87-0.45l0.22-0.45      c0.3,0.14,0.6,0.3,0.9,0.46L703.47,696.46z M683.34,696.25l-0.15-0.48c0.32-0.1,0.64-0.19,0.96-0.29l0.14,0.48      C683.98,696.06,683.66,696.15,683.34,696.25z M685.24,695.7l-0.13-0.48c0.33-0.09,0.65-0.17,0.97-0.25l0.12,0.48      C685.89,695.53,685.57,695.61,685.24,695.7z M701.7,695.61c-0.3-0.12-0.61-0.24-0.92-0.35l0.16-0.47      c0.32,0.11,0.64,0.23,0.94,0.36L701.7,695.61z M687.17,695.22l-0.11-0.49c0.33-0.08,0.66-0.15,0.98-0.21l0.1,0.49      C687.82,695.07,687.49,695.14,687.17,695.22z M699.85,694.97c-0.31-0.09-0.63-0.17-0.95-0.24l0.11-0.49      c0.33,0.07,0.66,0.16,0.98,0.25L699.85,694.97z M689.11,694.82l-0.09-0.49c0.34-0.06,0.66-0.12,0.99-0.17l0.08,0.49      C689.76,694.7,689.44,694.76,689.11,694.82z M697.93,694.54c-0.32-0.05-0.64-0.1-0.97-0.14l0.06-0.49      c0.34,0.04,0.67,0.08,1,0.14L697.93,694.54z M691.06,694.51l-0.06-0.49c0.34-0.04,0.67-0.08,1-0.11l0.05,0.5      C691.72,694.43,691.39,694.47,691.06,694.51z M693.03,694.33l-0.03-0.5c0.34-0.02,0.68-0.03,1-0.04l0.01,0.5      C693.69,694.29,693.36,694.3,693.03,694.33z M695.98,694.32c-0.32-0.02-0.65-0.03-0.98-0.04l0.01-0.5      c0.34,0.01,0.68,0.02,1.01,0.04L695.98,694.32z"></path><path fill="#e8fde6" d="M778.32 735.21c0 0-.77 5.15 4.13 6.61l5.84-8.52c-1.71-.9-3.75-.96-5.53-.13C781.04 733.97 779.6 734.63 778.32 735.21zM746.7 769.48l6.01 4.12c5.25-7.87-2.26-11.76-2.26-11.76-2.34 2.99-3.89 4.67-4.16 4.97-.03.03-.05.05-.05.05l-.02.03C745.63 767.74 745.85 768.9 746.7 769.48z"></path><path fill="#a1cd96" d="M766.27,740.42c-0.83,0.36-1.74,0.75-2.72,1.17c0,0-0.41,0.81-1.18,2.23c-1.29,2.35-3.61,6.35-6.76,10.95      c-0.26,0.39-0.53,0.77-0.79,1.13c-1.64,2.35-3.12,4.33-4.37,5.93c0,0,7.51,3.89,2.26,11.76l5.41,3.71l24.34-35.49      c-4.9-1.46-4.13-6.61-4.13-6.61c-2.68,1.21-4.7,2.08-7.46,3.26C769.55,739.02,768.07,739.65,766.27,740.42z"></path><path fill="#17511a" d="M758.12,777.31l0.2,0.13c1.08,0.74,2.55,0.47,3.28-0.61l27.82-40.57c0.29-0.42,0.38-0.92,0.29-1.39      c-0.09-0.47-0.35-0.9-0.78-1.19c-0.2-0.14-0.42-0.27-0.64-0.38l-5.84,8.52L758.12,777.31z"></path><path fill="#fae0b2" d="M741.83,763.83l4.41,3.02c0,0,0.01-0.02,0.05-0.05c0.48-0.56,4.78-5.58,8.54-10.9      c0.26-0.36,0.52-0.74,0.79-1.13c3.15-4.59,5.47-8.59,6.76-10.95c0.74-1.37,1.13-2.15,1.13-2.15l-4.41-3.02l-15.95,23.26      L741.83,763.83z"></path><rect width=".56" height="6.05" x="766.58" y="740.37" fill="#e8fde6" transform="rotate(-11.275 767.003 743.391)"></rect><rect width=".56" height="6.06" x="768.97" y="739.43" fill="#e8fde6" transform="rotate(-11.246 769.178 742.43)"></rect><polygon fill="#e8fde6" points="771.76 744.43 770.58 738.52 771.12 738.35 771.13 738.38 772.31 744.32"></polygon><path fill="#184655" d="M694.56,665.75L694.56,665.75c-1.12-0.58-1.56-1.95-0.98-3.07l15.89-30.86c0.58-1.12,1.95-1.56,3.07-0.98     l0,0c1.12,0.58,1.56,1.95,0.98,3.07l-15.89,30.86C697.05,665.89,695.68,666.33,694.56,665.75z"></path><path fill="#fae0b2" d="M693.41,675.15c8.33-2.08,12.7-11.84,12.51-17.18c-0.19-5.34-2.26-5.45-2.26-5.45s-3.11,6.03-4.49,8.72     c-1.39,2.69-1.28,3.86-3.52,3.21c-2.24-0.64-1.22-3.39-1.22-3.39l1.68-3.83c-1.75-1.97-3.59,1.35-6.31,2.79     c-2.72,1.43-4.44,7.2-4.44,7.2S686.9,673.79,693.41,675.15z"></path><path fill="#355389" d="M615.77,652.34c-7.58,5.21-9.12,15.77-3.37,22.95c2.45,3.06,4.65,5.73,5.68,6.79     c0.74,0.79,1.54,1.56,2.31,2.34c0.78,0.77,1.56,1.54,2.39,2.3c0.82,0.76,1.62,1.52,2.47,2.27l2.59,2.23     c0.42,0.37,0.88,0.74,1.35,1.1l1.39,1.08l1.39,1.08l1.5,1.06l1.5,1.04c0.25,0.17,0.49,0.35,0.76,0.52l0.83,0.51l1.65,1.01     l0.83,0.5l0.41,0.25l0.66,0.35c0.92,0.47,1.84,0.96,2.79,1.34c0.96,0.36,1.93,0.71,2.89,1.01c0.96,0.24,1.93,0.46,2.89,0.65     c0.95,0.15,1.88,0.24,2.82,0.32c3.69,0.21,6.97-0.26,9.87-1.01c0.71-0.2,1.46-0.38,2.12-0.61l2-0.7c1.26-0.5,2.51-1.03,3.66-1.61     c2.32-1.14,4.46-2.39,6.42-3.73c3.96-2.65,7.37-5.61,10.55-8.67c1.57-1.56,3.09-3.13,4.52-4.77c0.72-0.83,1.43-1.65,2.12-2.5     l1.03-1.3l1.07-1.4l-10.77-11.23c-0.13,0.05-0.35,0.18-0.54,0.28l-0.59,0.34l-1.21,0.68c-0.81,0.46-1.62,0.92-2.44,1.36     c-1.64,0.89-3.27,1.77-4.91,2.57c-3.25,1.64-6.53,3.06-9.63,4.12c-1.55,0.55-3.05,0.94-4.44,1.24c-0.34,0.06-0.7,0.16-1.02,0.19     c-0.33,0.04-0.65,0.09-0.97,0.14l-0.89,0.07c-0.3,0.04-0.54,0-0.81,0.01c-1.02-0.03-2.47-1.45-2.47-1.45l-0.8-0.7l-0.4-0.34     c-0.14-0.12-0.28-0.27-0.42-0.41l-0.83-0.82l-0.84-0.8l-0.86-0.9c-0.57-0.61-1.14-1.16-1.71-1.81     c-1.17-1.25-6.34-7.69-11.18-13.77C631.93,649.02,622.61,647.63,615.77,652.34L615.77,652.34z"></path></g><path fill="#576c89" d="M825.53,788.34H171.15l0,0c0-8.9,7.21-16.11,16.11-16.11h622.17C818.32,772.24,825.53,779.45,825.53,788.34    L825.53,788.34z"></path></g></svg>