<?xml version="1.0" encoding="UTF-8"?>
<!DOCTYPE svg PUBLIC "-//W3C//DTD SVG 1.1//EN" "http://www.w3.org/Graphics/SVG/1.1/DTD/svg11.dtd">
<svg xmlns="http://www.w3.org/2000/svg" version="1.1" width="50px" height="50px" style="shape-rendering:geometricPrecision; text-rendering:geometricPrecision; image-rendering:optimizeQuality; fill-rule:evenodd; clip-rule:evenodd" xmlns:xlink="http://www.w3.org/1999/xlink">
<g><path style="opacity:0.83" fill="#fefffe" d="M 26.5,1.5 C 29.6306,4.12879 32.6306,6.96213 35.5,10C 32.6667,12.8333 29.8333,15.6667 27,18.5C 26.5045,16.5273 26.3379,14.5273 26.5,12.5C 23.5,12.5 20.5,12.5 17.5,12.5C 17.5,10.8333 17.5,9.16667 17.5,7.5C 20.5,7.5 23.5,7.5 26.5,7.5C 26.5,5.5 26.5,3.5 26.5,1.5 Z"/></g>
<g><path style="opacity:0.778" fill="#fefffe" d="M 3.5,3.5 C 6.1873,3.33591 8.85397,3.50258 11.5,4C 13.7316,9.52381 16.065,15.0238 18.5,20.5C 23.467,21.6623 28.467,21.8289 33.5,21C 36.3747,16.0828 39.3747,11.2495 42.5,6.5C 44.2303,7.02561 45.5637,8.02561 46.5,9.5C 43.5,14.8333 40.5,20.1667 37.5,25.5C 36.624,26.2508 35.624,26.7508 34.5,27C 29.1667,27.3333 23.8333,27.6667 18.5,28C 17.8333,28.6667 17.1667,29.3333 16.5,30C 24.8267,30.4997 33.16,30.6664 41.5,30.5C 41.5,32.1667 41.5,33.8333 41.5,35.5C 32.1607,35.6665 22.8274,35.4998 13.5,35C 10.7504,31.1356 11.0837,27.469 14.5,24C 12.2046,19.2411 10.0379,14.4077 8,9.5C 6.64387,8.61983 5.14387,8.28649 3.5,8.5C 3.5,6.83333 3.5,5.16667 3.5,3.5 Z"/></g>
<g><path style="opacity:0.764" fill="#fefffe" d="M 13.5,36.5 C 19.9889,36.1563 21.9889,38.9896 19.5,45C 11.749,46.0913 9.74896,43.258 13.5,36.5 Z"/></g>
<g><path style="opacity:0.787" fill="#fefffe" d="M 34.5,36.5 C 41.4863,36.331 43.153,39.1643 39.5,45C 32.4159,45.475 30.7492,42.6417 34.5,36.5 Z"/></g>
</svg>
