<?xml version="1.0" encoding="UTF-8"?>
<!DOCTYPE svg PUBLIC "-//W3C//DTD SVG 1.1//EN" "http://www.w3.org/Graphics/SVG/1.1/DTD/svg11.dtd">
<svg xmlns="http://www.w3.org/2000/svg" version="1.1" width="50px" height="50px" style="shape-rendering:geometricPrecision; text-rendering:geometricPrecision; image-rendering:optimizeQuality; fill-rule:evenodd; clip-rule:evenodd" xmlns:xlink="http://www.w3.org/1999/xlink">
<g><path style="opacity:0.835" fill="#fefffe" d="M 7.5,5.5 C 18.8382,5.33348 30.1716,5.50014 41.5,6C 42,6.5 42.5,7 43,7.5C 43.6667,18.8333 43.6667,30.1667 43,41.5C 42.5,42 42,42.5 41.5,43C 30.1667,43.6667 18.8333,43.6667 7.5,43C 7,42.5 6.5,42 6,41.5C 5.33333,30.1667 5.33333,18.8333 6,7.5C 6.71719,6.9558 7.21719,6.28913 7.5,5.5 Z M 10.5,10.5 C 19.8333,10.5 29.1667,10.5 38.5,10.5C 38.5,19.8333 38.5,29.1667 38.5,38.5C 29.1667,38.5 19.8333,38.5 10.5,38.5C 10.5,29.1667 10.5,19.8333 10.5,10.5 Z"/></g>
<g><path style="opacity:0.609" fill="#fefffe" d="M 18.5,14.5 C 20.4807,16.1436 22.4807,17.8103 24.5,19.5C 26.4829,18.018 28.3163,16.3513 30,14.5C 31.5,16 33,17.5 34.5,19C 32.6487,20.6837 30.982,22.5171 29.5,24.5C 30.982,26.4829 32.6487,28.3163 34.5,30C 33,31.5 31.5,33 30,34.5C 28.3163,32.6487 26.4829,30.982 24.5,29.5C 22.5171,30.982 20.6837,32.6487 19,34.5C 17.5,33 16,31.5 14.5,30C 16.3513,28.3163 18.018,26.4829 19.5,24.5C 18.018,22.5171 16.3513,20.6837 14.5,19C 16.0414,17.6288 17.3747,16.1288 18.5,14.5 Z"/></g>
</svg>
