<?xml version="1.0" encoding="UTF-8"?>
<!DOCTYPE svg PUBLIC "-//W3C//DTD SVG 1.1//EN" "http://www.w3.org/Graphics/SVG/1.1/DTD/svg11.dtd">
<svg xmlns="http://www.w3.org/2000/svg" version="1.1" width="50px" height="50px" style="shape-rendering:geometricPrecision; text-rendering:geometricPrecision; image-rendering:optimizeQuality; fill-rule:evenodd; clip-rule:evenodd" xmlns:xlink="http://www.w3.org/1999/xlink">
<g><path style="opacity:0.845" fill="#fefffe" d="M 9.5,3.5 C 17.1739,3.33365 24.8406,3.50031 32.5,4C 35.3333,6.83333 38.1667,9.66667 41,12.5C 41.6667,22.8333 41.6667,33.1667 41,43.5C 40.5,44 40,44.5 39.5,45C 29.5,45.6667 19.5,45.6667 9.5,45C 9,44.5 8.5,44 8,43.5C 7.98586,40.0963 6.65253,37.4296 4,35.5C 3.33333,30.1667 3.33333,24.8333 4,19.5C 5,18.8333 6,18.1667 7,17.5C 7.33333,13.5 7.66667,9.5 8,5.5C 8.71719,4.9558 9.21719,4.28913 9.5,3.5 Z M 12.5,8.5 C 17.8333,8.5 23.1667,8.5 28.5,8.5C 28.5,11.1667 28.5,13.8333 28.5,16.5C 29.7542,18.2595 24.4208,18.5929 12.5,17.5C 12.5,14.5 12.5,11.5 12.5,8.5 Z M 12.5,24.5 C 11.5,24.5 10.5,24.5 9.5,24.5C 9.28519,26.1788 9.95186,27.1788 11.5,27.5C 10.1679,28.8304 9.33452,30.4971 9,32.5C 8.50166,29.1832 8.33499,25.8499 8.5,22.5C 10.3797,22.2291 11.713,22.8958 12.5,24.5 Z M 22.5,24.5 C 20.8333,24.5 19.1667,24.5 17.5,24.5C 17.5,26.8333 17.5,29.1667 17.5,31.5C 18.8333,31.5 20.1667,31.5 21.5,31.5C 20.0813,32.4511 18.4147,32.7845 16.5,32.5C 16.5,29.1667 16.5,25.8333 16.5,22.5C 18.8984,22.2594 20.8984,22.9261 22.5,24.5 Z M 27.5,22.5 C 29.288,22.2148 30.9547,22.5481 32.5,23.5C 31.3112,24.4287 29.9778,24.762 28.5,24.5C 28.5,25.5 28.5,26.5 28.5,27.5C 32.5,27.8333 32.5,28.1667 28.5,28.5C 28.6567,29.8734 28.49,31.2068 28,32.5C 27.5017,29.1832 27.335,25.8499 27.5,22.5 Z M 22.5,24.5 C 24.7311,26.6424 24.7311,28.6424 22.5,30.5C 22.5,28.5 22.5,26.5 22.5,24.5 Z M 12.5,37.5 C 20.5,37.5 28.5,37.5 36.5,37.5C 36.5,38.5 36.5,39.5 36.5,40.5C 28.5,40.5 20.5,40.5 12.5,40.5C 12.5,39.5 12.5,38.5 12.5,37.5 Z"/></g>
<g><path style="opacity:0.472" fill="#fefffe" d="M 12.5,24.5 C 12.5,25.1667 12.5,25.8333 12.5,26.5C 11.8333,26.5 11.5,26.8333 11.5,27.5C 9.95186,27.1788 9.28519,26.1788 9.5,24.5C 10.5,24.5 11.5,24.5 12.5,24.5 Z"/></g>
<g><path style="opacity:0.687" fill="#fefffe" d="M 22.5,24.5 C 22.5,26.5 22.5,28.5 22.5,30.5C 21.8333,30.5 21.5,30.8333 21.5,31.5C 20.1667,31.5 18.8333,31.5 17.5,31.5C 17.5,29.1667 17.5,26.8333 17.5,24.5C 19.1667,24.5 20.8333,24.5 22.5,24.5 Z"/></g>
</svg>
