<?xml version="1.0" encoding="UTF-8"?>
<!DOCTYPE svg PUBLIC "-//W3C//DTD SVG 1.1//EN" "http://www.w3.org/Graphics/SVG/1.1/DTD/svg11.dtd">
<svg xmlns="http://www.w3.org/2000/svg" version="1.1" width="50px" height="50px" style="shape-rendering:geometricPrecision; text-rendering:geometricPrecision; image-rendering:optimizeQuality; fill-rule:evenodd; clip-rule:evenodd" xmlns:xlink="http://www.w3.org/1999/xlink">
<g><path style="opacity:0.892" fill="#fefffe" d="M 1.5,3.5 C 4.24688,3.18665 6.91355,3.51998 9.5,4.5C 9.83333,5.16667 10.1667,5.83333 10.5,6.5C 21.4798,7.49878 32.4798,7.83211 43.5,7.5C 41.969,13.9046 39.3023,19.9046 35.5,25.5C 34.624,26.2508 33.624,26.7508 32.5,27C 27.1667,27.3333 21.8333,27.6667 16.5,28C 15.8333,28.6667 15.1667,29.3333 14.5,30C 22.8267,30.4997 31.16,30.6664 39.5,30.5C 39.5,32.1667 39.5,33.8333 39.5,35.5C 30.1607,35.6665 20.8274,35.4998 11.5,35C 10.0564,33.874 9.38977,32.374 9.5,30.5C 10.6488,27.5638 11.1488,24.5638 11,21.5C 9.33333,17.5 7.66667,13.5 6,9.5C 4.64387,8.61983 3.14387,8.28649 1.5,8.5C 1.5,6.83333 1.5,5.16667 1.5,3.5 Z"/></g>
<g><path style="opacity:0.786" fill="#fefffe" d="M 11.5,36.5 C 18.4863,36.331 20.153,39.1643 16.5,45C 9.4159,45.475 7.74923,42.6417 11.5,36.5 Z"/></g>
<g><path style="opacity:0.786" fill="#fefffe" d="M 32.5,36.5 C 39.4863,36.331 41.153,39.1643 37.5,45C 30.4159,45.475 28.7492,42.6417 32.5,36.5 Z"/></g>
</svg>
